<?xml version="1.0" encoding="UTF-8"?>
<svg xmlns="http://www.w3.org/2000/svg" xmlns:xlink="http://www.w3.org/1999/xlink" width="18px" height="18px" viewBox="0 0 18 18" version="1.1">
<g id="surface1">
<path style=" stroke:none;fill-rule:nonzero;fill:rgb(89.411765%,68.627451%,9.411765%);fill-opacity:1;" d="M 10 17.882812 L 8.28125 17.882812 C 4.519531 17.882812 1.472656 13.898438 1.472656 8.988281 C 1.472656 4.078125 4.519531 0.0976562 8.28125 0.0976562 L 9.699219 0.0976562 Z M 10 17.882812 "/>
<path style=" stroke:none;fill-rule:nonzero;fill:rgb(76.862745%,57.254902%,7.843137%);fill-opacity:1;" d="M 8.902344 0.382812 L 6.585938 0.382812 C 6.191406 0.511719 5.8125 0.6875 5.453125 0.902344 L 7.78125 0.902344 C 8.140625 0.6875 8.511719 0.511719 8.902344 0.382812 Z M 8.902344 0.382812 "/>
<path style=" stroke:none;fill-rule:nonzero;fill:rgb(76.862745%,57.254902%,7.843137%);fill-opacity:1;" d="M 6.644531 1.769531 L 4.3125 1.769531 C 4.117188 1.949219 3.933594 2.144531 3.757812 2.34375 L 6.089844 2.34375 C 6.265625 2.144531 6.449219 1.949219 6.644531 1.769531 Z M 6.644531 1.769531 "/>
<path style=" stroke:none;fill-rule:nonzero;fill:rgb(76.862745%,57.254902%,7.843137%);fill-opacity:1;" d="M 5.257812 3.5 L 2.929688 3.5 C 2.816406 3.691406 2.707031 3.882812 2.605469 4.082031 L 4.9375 4.082031 C 5.039062 3.882812 5.148438 3.691406 5.257812 3.5 Z M 5.257812 3.5 "/>
<path style=" stroke:none;fill-rule:nonzero;fill:rgb(76.862745%,57.254902%,7.843137%);fill-opacity:1;" d="M 4.441406 5.234375 L 2.109375 5.234375 C 2.042969 5.425781 1.980469 5.617188 1.921875 5.8125 L 4.253906 5.8125 C 4.3125 5.617188 4.375 5.425781 4.441406 5.234375 Z M 4.441406 5.234375 "/>
<path style=" stroke:none;fill-rule:nonzero;fill:rgb(76.862745%,57.254902%,7.843137%);fill-opacity:1;" d="M 3.984375 6.96875 L 1.652344 6.96875 C 1.617188 7.15625 1.589844 7.351562 1.5625 7.546875 L 3.894531 7.546875 C 3.921875 7.351562 3.949219 7.15625 3.984375 6.96875 Z M 3.984375 6.96875 "/>
<path style=" stroke:none;fill-rule:nonzero;fill:rgb(76.862745%,57.254902%,7.843137%);fill-opacity:1;" d="M 3.804688 8.988281 C 3.804688 8.894531 3.808594 8.796875 3.8125 8.703125 L 1.480469 8.703125 C 1.476562 8.796875 1.472656 8.894531 1.472656 8.988281 C 1.472656 9.085938 1.476562 9.183594 1.480469 9.277344 L 3.8125 9.277344 C 3.808594 9.183594 3.804688 9.085938 3.804688 8.988281 Z M 3.804688 8.988281 "/>
<path style=" stroke:none;fill-rule:nonzero;fill:rgb(76.862745%,57.254902%,7.843137%);fill-opacity:1;" d="M 3.894531 10.433594 L 1.5625 10.433594 C 1.589844 10.628906 1.617188 10.824219 1.652344 11.011719 L 3.984375 11.011719 C 3.949219 10.824219 3.921875 10.628906 3.894531 10.433594 Z M 3.894531 10.433594 "/>
<path style=" stroke:none;fill-rule:nonzero;fill:rgb(76.862745%,57.254902%,7.843137%);fill-opacity:1;" d="M 4.253906 12.167969 L 1.921875 12.167969 C 1.980469 12.363281 2.042969 12.554688 2.109375 12.742188 L 4.441406 12.742188 C 4.375 12.554688 4.3125 12.363281 4.253906 12.167969 Z M 4.253906 12.167969 "/>
<path style=" stroke:none;fill-rule:nonzero;fill:rgb(76.862745%,57.254902%,7.843137%);fill-opacity:1;" d="M 4.9375 13.898438 L 2.605469 13.898438 C 2.707031 14.097656 2.816406 14.289062 2.929688 14.480469 L 5.257812 14.480469 C 5.148438 14.289062 5.039062 14.097656 4.9375 13.898438 Z M 4.9375 13.898438 "/>
<path style=" stroke:none;fill-rule:nonzero;fill:rgb(76.862745%,57.254902%,7.843137%);fill-opacity:1;" d="M 6.089844 15.632812 L 3.757812 15.632812 C 3.933594 15.835938 4.117188 16.03125 4.3125 16.210938 L 6.644531 16.210938 C 6.449219 16.03125 6.265625 15.835938 6.089844 15.632812 Z M 6.089844 15.632812 "/>
<path style=" stroke:none;fill-rule:nonzero;fill:rgb(76.862745%,57.254902%,7.843137%);fill-opacity:1;" d="M 7.660156 17 L 5.449219 17.078125 C 5.820312 17.296875 6.203125 17.472656 6.601562 17.601562 L 8.914062 17.601562 C 8.476562 17.457031 8.058594 17.253906 7.660156 17 Z M 7.660156 17 "/>
<path style=" stroke:none;fill-rule:nonzero;fill:rgb(100%,85.098039%,28.627451%);fill-opacity:1;" d="M 16.507812 8.988281 C 16.507812 4.082031 13.460938 0.0976562 9.699219 0.0976562 C 5.941406 0.0976562 2.894531 4.082031 2.894531 8.988281 C 2.894531 13.898438 5.941406 17.882812 9.699219 17.882812 C 13.460938 17.882812 16.507812 13.898438 16.507812 8.988281 Z M 16.507812 8.988281 "/>
<path style=" stroke:none;fill-rule:nonzero;fill:rgb(89.411765%,68.627451%,9.411765%);fill-opacity:1;" d="M 14.992188 8.988281 C 14.992188 5.167969 12.621094 2.074219 9.699219 2.074219 C 6.773438 2.074219 4.40625 5.167969 4.40625 8.988281 C 4.40625 12.808594 6.773438 15.90625 9.699219 15.90625 C 12.621094 15.90625 14.992188 12.808594 14.992188 8.988281 Z M 14.992188 8.988281 "/>
<path style=" stroke:none;fill-rule:nonzero;fill:rgb(100%,85.098039%,28.627451%);fill-opacity:1;" d="M 12.429688 13.109375 C 12.351562 12.851562 12.078125 12.726562 11.824219 12.832031 C 11.574219 12.941406 11.316406 13.003906 11.054688 13.027344 C 9.707031 13.144531 8.554688 12.136719 8.101562 10.621094 L 10.761719 10.386719 C 11.035156 10.363281 11.246094 10.121094 11.246094 9.839844 C 11.246094 9.5625 11.027344 9.355469 10.761719 9.378906 L 7.914062 9.628906 C 7.902344 9.496094 7.898438 9.363281 7.898438 9.226562 C 7.898438 9.140625 7.898438 9.058594 7.90625 8.976562 L 10.757812 8.726562 C 11.023438 8.703125 11.242188 8.457031 11.238281 8.179688 C 11.238281 7.902344 11.019531 7.695312 10.753906 7.71875 L 8.042969 7.957031 C 8.445312 6.28125 9.625 4.992188 11.015625 4.867188 C 11.277344 4.847656 11.535156 4.867188 11.789062 4.925781 C 12.042969 4.988281 12.316406 4.816406 12.394531 4.546875 C 12.472656 4.273438 12.332031 4.003906 12.078125 3.941406 C 11.730469 3.855469 11.375 3.832031 11.015625 3.863281 C 9.097656 4.03125 7.492188 5.804688 7.046875 8.046875 L 6.128906 8.125 C 5.859375 8.152344 5.648438 8.394531 5.648438 8.671875 C 5.648438 8.953125 5.867188 9.15625 6.132812 9.136719 L 6.933594 9.066406 C 6.929688 9.144531 6.925781 9.226562 6.925781 9.308594 C 6.929688 9.445312 6.9375 9.582031 6.945312 9.71875 L 6.136719 9.789062 C 5.871094 9.808594 5.652344 10.054688 5.65625 10.332031 C 5.65625 10.613281 5.871094 10.820312 6.140625 10.792969 L 7.097656 10.710938 C 7.601562 12.785156 9.191406 14.199219 11.058594 14.035156 C 11.417969 14 11.777344 13.914062 12.117188 13.765625 C 12.375 13.664062 12.511719 13.367188 12.429688 13.109375 Z M 12.429688 13.109375 "/>
</g>
</svg>
