<svg width="40" height="40" viewBox="0 0 40 40" fill="none" xmlns="http://www.w3.org/2000/svg">
<path d="M34.2673 15.8116C34.0333 13.3764 33.1727 11.0434 31.7693 9.03961C30.3658 7.03584 28.4674 5.42963 26.2589 4.3774C24.0504 3.32517 21.6071 2.86278 19.1668 3.03525C16.7265 3.20773 14.3725 4.00918 12.3339 5.36158C10.5826 6.53266 9.11237 8.07708 8.02886 9.8839C6.94534 11.6907 6.27544 13.7151 6.06728 15.8116C5.86309 17.8943 6.12507 19.9964 6.83423 21.9654C7.54339 23.9343 8.68194 25.7207 10.1673 27.1949L19.0006 36.0449C19.1556 36.2011 19.3399 36.3251 19.543 36.4097C19.7461 36.4944 19.9639 36.5379 20.1839 36.5379C20.404 36.5379 20.6218 36.4944 20.8249 36.4097C21.028 36.3251 21.2123 36.2011 21.3673 36.0449L30.1673 27.1949C31.6526 25.7207 32.7912 23.9343 33.5003 21.9654C34.2095 19.9964 34.4715 17.8943 34.2673 15.8116ZM27.834 24.8449L20.1673 32.5116L12.5006 24.8449C11.3708 23.715 10.5053 22.3488 9.9664 20.8445C9.42751 19.3402 9.22859 17.7352 9.38395 16.1449C9.54031 14.5301 10.0536 12.9702 10.8866 11.578C11.7196 10.1858 12.8515 8.99609 14.2006 8.09492C15.9689 6.92031 18.0445 6.29374 20.1673 6.29374C22.2901 6.29374 24.3657 6.92031 26.1339 8.09492C27.4789 8.99261 28.6084 10.1771 29.4412 11.5631C30.274 12.9492 30.7895 14.5026 30.9506 16.1116C31.111 17.7073 30.9146 19.3187 30.3756 20.8292C29.8366 22.3396 28.9684 23.7113 27.834 24.8449ZM20.1673 9.76158C18.6839 9.76158 17.2339 10.2015 16.0005 11.0256C14.7671 11.8497 13.8058 13.021 13.2382 14.3915C12.6705 15.7619 12.522 17.2699 12.8114 18.7248C13.1008 20.1796 13.8151 21.516 14.864 22.5649C15.9129 23.6138 17.2492 24.3281 18.7041 24.6175C20.159 24.9069 21.667 24.7583 23.0374 24.1907C24.4079 23.623 25.5792 22.6617 26.4033 21.4284C27.2274 20.195 27.6673 18.7449 27.6673 17.2616C27.6629 15.2738 26.8713 13.3687 25.4657 11.9631C24.0602 10.5576 22.1551 9.76599 20.1673 9.76158ZM20.1673 21.4282C19.3432 21.4282 18.5376 21.1839 17.8524 20.726C17.1672 20.2682 16.6332 19.6175 16.3178 18.8561C16.0024 18.0947 15.9199 17.257 16.0807 16.4487C16.2414 15.6405 16.6383 14.898 17.221 14.3153C17.8037 13.7326 18.5462 13.3357 19.3544 13.175C20.1627 13.0142 21.0004 13.0967 21.7618 13.4121C22.5232 13.7275 23.1739 14.2615 23.6317 14.9467C24.0896 15.6319 24.334 16.4375 24.334 17.2616C24.334 18.3667 23.895 19.4265 23.1136 20.2079C22.3322 20.9893 21.2724 21.4282 20.1673 21.4282Z" fill="#B1B1B1"/>
</svg>
