<svg width="30" height="30" viewBox="0 0 30 30" fill="none" xmlns="http://www.w3.org/2000/svg">
<g clip-path="url(#clip0_47_276)">
<path d="M15 0C6.71566 0 0 6.71566 0 15C0 23.2843 6.71566 30 15 30C23.2843 30 30 23.2843 30 15C30 6.71566 23.2843 0 15 0Z" fill="#40B3E0"/>
<path d="M21.9396 8.51866L19.2604 22.0265C19.2604 22.0265 18.8858 22.9633 17.8553 22.5137L11.6728 17.7737L9.42464 16.6871L5.64018 15.413C5.64018 15.413 5.0594 15.207 5.00315 14.7574C4.94702 14.3077 5.65893 14.0642 5.65893 14.0642L20.703 8.16264C20.703 8.16264 21.9396 7.61936 21.9396 8.51866Z" fill="white"/>
<path d="M11.5569 21.9848C11.5569 21.9848 11.3764 21.9679 11.1515 21.2559C10.9267 20.544 9.78394 16.797 9.78394 16.797L18.8703 11.0267C18.8703 11.0267 19.395 10.7082 19.3762 11.0267C19.3762 11.0267 19.4698 11.0828 19.1888 11.3451C18.9078 11.6075 12.0508 17.7712 12.0508 17.7712" fill="#D2E5F1"/>
<path d="M14.4024 19.701L11.957 21.9306C11.957 21.9306 11.7658 22.0757 11.5566 21.9848L12.0249 17.8433" fill="#B5CFE4"/>
</g>
<defs>
<clipPath id="clip0_47_276">
<rect width="30" height="30" fill="white"/>
</clipPath>
</defs>
</svg>
