<svg width="21" height="12" viewBox="0 0 21 12" fill="none" xmlns="http://www.w3.org/2000/svg">
<path d="M13.8134 0.290059C13.7197 0.383023 13.6453 0.493622 13.5945 0.615482C13.5438 0.737341 13.5176 0.868047 13.5176 1.00006C13.5176 1.13207 13.5438 1.26278 13.5945 1.38464C13.6453 1.50649 13.7197 1.61709 13.8134 1.71006L17.1134 5.00006L1.52344 5.00006C1.25822 5.00006 1.00387 5.10542 0.816331 5.29295C0.628794 5.48049 0.523437 5.73484 0.523437 6.00006C0.523437 6.26528 0.628794 6.51963 0.816331 6.70717C1.00387 6.8947 1.25822 7.00006 1.52344 7.00006L17.1134 7.00006L13.8134 10.2901C13.6251 10.4784 13.5193 10.7338 13.5193 11.0001C13.5193 11.2664 13.6251 11.5218 13.8134 11.7101C14.0017 11.8984 14.2571 12.0041 14.5234 12.0041C14.7897 12.0041 15.0451 11.8984 15.2334 11.7101L20.2334 6.71006C20.3245 6.61495 20.3958 6.50281 20.4434 6.38006C20.4963 6.26036 20.5237 6.13093 20.5237 6.00006C20.5237 5.86919 20.4963 5.73976 20.4434 5.62006C20.3958 5.49731 20.3245 5.38516 20.2334 5.29006L15.2334 0.290059C15.1405 0.196331 15.0299 0.121935 14.908 0.0711664C14.7862 0.0203975 14.6554 -0.00573983 14.5234 -0.00573982C14.3914 -0.00573982 14.2607 0.0203975 14.1389 0.0711664C14.017 0.121935 13.9064 0.196331 13.8134 0.290059Z" fill="#FFBC57"/>
</svg>
