<svg width="16" height="16" viewBox="0 0 16 16" fill="none" xmlns="http://www.w3.org/2000/svg">
<g id="Plus">
<path id="Vector" d="M13 7.66667H9V3.66667C9 3.48986 8.92976 3.32029 8.80474 3.19526C8.67971 3.07024 8.51014 3 8.33333 3C8.15652 3 7.98695 3.07024 7.86193 3.19526C7.7369 3.32029 7.66667 3.48986 7.66667 3.66667V7.66667H3.66667C3.48986 7.66667 3.32029 7.7369 3.19526 7.86193C3.07024 7.98695 3 8.15652 3 8.33333C3 8.51014 3.07024 8.67971 3.19526 8.80474C3.32029 8.92976 3.48986 9 3.66667 9H7.66667V13C7.66667 13.1768 7.7369 13.3464 7.86193 13.4714C7.98695 13.5964 8.15652 13.6667 8.33333 13.6667C8.51014 13.6667 8.67971 13.5964 8.80474 13.4714C8.92976 13.3464 9 13.1768 9 13V9H13C13.1768 9 13.3464 8.92976 13.4714 8.80474C13.5964 8.67971 13.6667 8.51014 13.6667 8.33333C13.6667 8.15652 13.5964 7.98695 13.4714 7.86193C13.3464 7.7369 13.1768 7.66667 13 7.66667Z" fill="#535353"/>
</g>
</svg>
