<svg width="21" height="21" viewBox="0 0 21 21" fill="none" xmlns="http://www.w3.org/2000/svg">
<path d="M19.6101 18.1581C20.2368 17.318 20.6669 16.348 20.8686 15.3195C21.0703 14.291 21.0385 13.2304 20.7755 12.2158C20.5125 11.2013 20.025 10.2588 19.3491 9.45782C18.6732 8.65685 17.826 8.01788 16.8701 7.58807C16.6619 6.39017 16.1834 5.25549 15.4709 4.27024C14.7585 3.28499 13.8308 2.4751 12.7585 1.9021C11.6861 1.3291 10.4972 1.00807 9.28217 0.963408C8.06713 0.918743 6.8579 1.15162 5.74635 1.64433C4.6348 2.13705 3.65018 2.87664 2.86731 3.80692C2.08443 4.7372 1.5239 5.83369 1.22831 7.01307C0.93271 8.19244 0.909825 9.42369 1.16139 10.6132C1.41295 11.8028 1.93235 12.9193 2.68011 13.8781L1.29011 15.2581C1.15136 15.3987 1.05736 15.5773 1.01998 15.7713C0.982611 15.9652 1.00353 16.166 1.08011 16.3481C1.15513 16.5307 1.28253 16.687 1.44625 16.7973C1.60997 16.9077 1.80269 16.9671 2.00011 16.9681H7.69011C8.25676 18.1627 9.15015 19.1724 10.2669 19.8803C11.3836 20.5882 12.6779 20.9653 14.0001 20.9681H20.0001C20.1975 20.9671 20.3903 20.9077 20.554 20.7973C20.7177 20.687 20.8451 20.5307 20.9201 20.3481C20.9967 20.166 21.0176 19.9652 20.9802 19.7713C20.9429 19.5773 20.8489 19.3987 20.7101 19.2581L19.6101 18.1581ZM7.00011 13.9681C7.00149 14.3029 7.02823 14.6372 7.08011 14.9681H4.41011L4.76011 14.6281C4.85384 14.5351 4.92824 14.4245 4.979 14.3026C5.02977 14.1808 5.05591 14.0501 5.05591 13.9181C5.05591 13.7861 5.02977 13.6554 4.979 13.5335C4.92824 13.4116 4.85384 13.301 4.76011 13.2081C4.19967 12.6538 3.75536 11.9933 3.45317 11.2653C3.15097 10.5373 2.99695 9.75631 3.00011 8.96807C3.00011 7.37677 3.63225 5.85065 4.75747 4.72543C5.88269 3.60021 7.40881 2.96807 9.00011 2.96807C10.2418 2.96061 11.4546 3.34246 12.468 4.05993C13.4815 4.77741 14.2446 5.79445 14.6501 6.96807C14.4301 6.96807 14.2201 6.96807 14.0001 6.96807C12.1436 6.96807 10.3631 7.70557 9.05037 9.01832C7.73761 10.3311 7.00011 12.1116 7.00011 13.9681ZM17.5401 18.9681L17.5901 19.0181H14.0001C12.8435 19.016 11.7233 18.613 10.8304 17.8777C9.93758 17.1424 9.32728 16.1202 9.10351 14.9854C8.87973 13.8506 9.05632 12.6733 9.60319 11.6541C10.1501 10.6349 11.0334 9.83678 12.1027 9.39577C13.172 8.95476 14.3611 8.89812 15.4674 9.2355C16.5738 9.57288 17.529 10.2834 18.1703 11.246C18.8115 12.2086 19.0992 13.3638 18.9843 14.5148C18.8694 15.6657 18.359 16.7412 17.5401 17.5581C17.3517 17.7427 17.2439 17.9943 17.2401 18.2581C17.2407 18.3904 17.2675 18.5213 17.319 18.6431C17.3705 18.765 17.4456 18.8755 17.5401 18.9681Z" fill="#FFBC57"/>
</svg>
