<svg width="21" height="22" viewBox="0 0 21 22" fill="none" xmlns="http://www.w3.org/2000/svg">
<path d="M14.1288 7.2581C14.0358 7.16437 13.9252 7.08997 13.8034 7.03921C13.6815 6.98844 13.5508 6.9623 13.4188 6.9623C13.2868 6.9623 13.1561 6.98844 13.0342 7.03921C12.9123 7.08997 12.8017 7.16437 12.7088 7.2581L10.4188 9.5581L8.12878 7.2581C7.94048 7.06979 7.68508 6.964 7.41878 6.964C7.15248 6.964 6.89708 7.06979 6.70878 7.2581C6.52048 7.4464 6.41469 7.7018 6.41469 7.9681C6.41469 8.2344 6.52048 8.48979 6.70878 8.6781L9.00878 10.9681L6.70878 13.2581C6.61505 13.3511 6.54066 13.4617 6.48989 13.5835C6.43912 13.7054 6.41298 13.8361 6.41298 13.9681C6.41298 14.1001 6.43912 14.2308 6.48989 14.3527C6.54066 14.4745 6.61505 14.5851 6.70878 14.6781C6.80174 14.7718 6.91234 14.8462 7.0342 14.897C7.15606 14.9478 7.28677 14.9739 7.41878 14.9739C7.55079 14.9739 7.6815 14.9478 7.80336 14.897C7.92522 14.8462 8.03582 14.7718 8.12878 14.6781L10.4188 12.3781L12.7088 14.6781C12.8017 14.7718 12.9123 14.8462 13.0342 14.897C13.1561 14.9478 13.2868 14.9739 13.4188 14.9739C13.5508 14.9739 13.6815 14.9478 13.8034 14.897C13.9252 14.8462 14.0358 14.7718 14.1288 14.6781C14.2225 14.5851 14.2969 14.4745 14.3477 14.3527C14.3984 14.2308 14.4246 14.1001 14.4246 13.9681C14.4246 13.8361 14.3984 13.7054 14.3477 13.5835C14.2969 13.4617 14.2225 13.3511 14.1288 13.2581L11.8288 10.9681L14.1288 8.6781C14.2225 8.58513 14.2969 8.47453 14.3477 8.35267C14.3984 8.23081 14.4246 8.10011 14.4246 7.9681C14.4246 7.83608 14.3984 7.70538 14.3477 7.58352C14.2969 7.46166 14.2225 7.35106 14.1288 7.2581ZM17.4888 3.8981C16.5663 2.94299 15.4629 2.18117 14.2428 1.65708C13.0228 1.13299 11.7106 0.857131 10.3828 0.845592C9.055 0.834054 7.7382 1.08707 6.50924 1.58988C5.28028 2.09269 4.16376 2.83522 3.22483 3.77415C2.2859 4.71307 1.54337 5.82959 1.04056 7.05856C0.537755 8.28752 0.284738 9.60432 0.296276 10.9321C0.307814 12.2599 0.583677 13.5721 1.10777 14.7921C1.63186 16.0122 2.39368 17.1156 3.34878 18.0381C4.27125 18.9932 5.3747 19.755 6.59474 20.2791C7.81477 20.8032 9.12698 21.0791 10.4548 21.0906C11.7826 21.1021 13.0994 20.8491 14.3283 20.3463C15.5573 19.8435 16.6738 19.101 17.6127 18.162C18.5517 17.2231 19.2942 16.1066 19.797 14.8776C20.2998 13.6487 20.5528 12.3319 20.5413 11.0041C20.5297 9.67629 20.2539 8.36409 19.7298 7.14405C19.2057 5.92401 18.4439 4.82057 17.4888 3.8981ZM16.0788 16.6281C14.7708 17.9375 13.0493 18.7529 11.2076 18.9354C9.36583 19.1179 7.51779 18.6562 5.9783 17.6289C4.43882 16.6016 3.30314 15.0723 2.76475 13.3016C2.22637 11.5309 2.31859 9.62824 3.02569 7.91788C3.7328 6.20752 5.01105 4.79524 6.64267 3.92166C8.27429 3.04807 10.1583 2.76723 11.9738 3.12697C13.7893 3.48671 15.4238 4.46479 16.599 5.89456C17.7742 7.32433 18.4173 9.11733 18.4188 10.9681C18.4223 12.0194 18.2174 13.0609 17.8157 14.0325C17.414 15.004 16.8237 15.8862 16.0788 16.6281Z" fill="#FFBC57"/>
</svg>
