<svg width="21" height="21" viewBox="0 0 21 21" fill="none" xmlns="http://www.w3.org/2000/svg">
<path d="M19.3498 9.04806C19.0688 8.71071 18.7172 8.43914 18.3198 8.25253C17.9224 8.06592 17.4888 7.96881 17.0498 7.96806H12.4898L13.0498 6.53806C13.2827 5.91194 13.3603 5.23867 13.2759 4.57598C13.1914 3.9133 12.9475 3.28099 12.565 2.73329C12.1825 2.18559 11.6728 1.73886 11.0797 1.43141C10.4867 1.12395 9.82784 0.964958 9.1598 0.968062C8.96744 0.968464 8.77928 1.02434 8.61788 1.12898C8.45647 1.23363 8.32867 1.38261 8.2498 1.55806L5.3998 7.96806H3.0498C2.25416 7.96806 1.49109 8.28413 0.928484 8.84674C0.365875 9.40935 0.0498047 10.1724 0.0498047 10.9681V17.9681C0.0498047 18.7637 0.365875 19.5268 0.928484 20.0894C1.49109 20.652 2.25416 20.9681 3.0498 20.9681H15.7798C16.4816 20.9678 17.1611 20.7216 17.7001 20.2721C18.2391 19.8226 18.6035 19.1984 18.7298 18.5081L19.9998 11.5081C20.0784 11.0754 20.0608 10.6308 19.9485 10.2057C19.8362 9.78063 19.6318 9.38542 19.3498 9.04806ZM5.0498 18.9681H3.0498C2.78459 18.9681 2.53023 18.8627 2.3427 18.6752C2.15516 18.4876 2.0498 18.2333 2.0498 17.9681V10.9681C2.0498 10.7028 2.15516 10.4485 2.3427 10.261C2.53023 10.0734 2.78459 9.96806 3.0498 9.96806H5.0498V18.9681ZM18.0498 11.1481L16.7798 18.1481C16.7372 18.381 16.6133 18.5913 16.4302 18.7415C16.2471 18.8916 16.0166 18.9719 15.7798 18.9681H7.0498V9.17806L9.7698 3.05806C10.0498 3.13969 10.3098 3.27847 10.5335 3.46565C10.7571 3.65282 10.9395 3.88433 11.0692 4.14556C11.1989 4.40678 11.273 4.69205 11.2869 4.98336C11.3007 5.27467 11.2541 5.5657 11.1498 5.83806L10.6198 7.26806C10.5069 7.57032 10.4687 7.89541 10.5087 8.21559C10.5486 8.53578 10.6654 8.84155 10.8491 9.1068C11.0329 9.37206 11.278 9.58893 11.5637 9.7389C11.8494 9.88887 12.1671 9.9675 12.4898 9.96806H17.0498C17.1967 9.96782 17.3419 9.99996 17.475 10.0622C17.608 10.1244 17.7258 10.2152 17.8198 10.3281C17.9161 10.4394 17.9867 10.5706 18.0265 10.7124C18.0662 10.8541 18.0742 11.0029 18.0498 11.1481Z" fill="#FFBC57"/>
</svg>
