<svg width="195" height="262" viewBox="0 0 195 262" fill="none" xmlns="http://www.w3.org/2000/svg">
<g clip-path="url(#clip0_505_828)">
<path d="M193.177 24.5703C190.402 26.8274 187.166 28.4472 183.698 29.3158C180.23 30.1843 176.614 30.2804 173.104 29.5972C170.767 29.1461 168.322 29.1031 165.942 28.8668C167.204 30.6731 168.816 32.2071 170.681 33.3781C175.097 36.1419 178.254 40.5309 179.474 45.6016C179.551 46.8694 179.36 48.1393 178.913 49.3278C178.466 50.5163 177.772 51.5966 176.879 52.4975C175.12 54.2376 173.212 51.896 172.032 50.3493C168.151 45.4298 163.454 40.7895 160.902 35.2041C157.6 27.8141 151.402 24.2481 145.59 19.8442C153.053 29.9656 157.17 42.1715 157.364 54.7532C157.364 57.6748 158.779 58.4481 161.267 58.7274C167.164 59.4336 172.544 62.4429 176.239 67.1011C179.933 71.7593 181.643 77.69 180.996 83.6041C180.868 84.893 180.031 86.805 179.088 87.0843C178.39 87.121 177.692 87.0121 177.039 86.7643C176.385 86.5165 175.79 86.1353 175.292 85.6449C172.397 83.1744 169.695 80.4676 166.928 77.8468L166.371 77.4386L166.714 78.0616C166.852 79.0508 167.067 80.0276 167.357 80.9832C169.4 87.1672 169.579 93.8173 167.872 100.103C167.313 101.448 166.522 102.685 165.534 103.755C164.569 103.024 163.261 102.53 162.661 101.606C158.36 95.4289 155.535 88.3432 154.404 80.8973C153.169 85.01 151.628 89.0241 149.794 92.906C146.659 98.4795 145.318 104.887 145.955 111.252C145.895 115.395 145.623 119.532 145.14 123.647C145.14 124.657 145.869 126.419 146.598 126.633C160.773 130.758 166.414 143.583 174.477 153.938C176.214 156.086 174.884 158.234 171.946 158.127C169.486 158.085 167.058 157.552 164.805 156.558C156.215 152.289 149.037 145.628 144.132 137.375C143.038 142.659 142.395 147.557 141.001 152.219C139.114 158.47 136.305 164.314 130.536 168.073C127.855 169.813 125.582 169.362 125.025 166.72C124.23 163.504 123.919 160.188 124.102 156.881C124.534 152.225 125.895 147.703 128.106 143.585C130.316 139.466 133.33 135.835 136.969 132.906C138.66 131.586 139.976 129.845 140.787 127.858C142.796 121.314 143.431 114.424 142.652 107.621C138.149 113.014 134.074 118.062 129.785 122.831C121.906 131.428 112.783 138.793 102.722 144.679C101.534 145.253 100.552 146.18 99.9071 147.333C99.2627 148.485 98.9875 149.809 99.1189 151.123C99.3119 154.947 99.1189 158.793 99.2475 162.617C99.5049 171.918 100.448 180.941 109.327 186.612C109.599 186.81 109.837 187.049 110.034 187.321C114.635 192.424 117.153 199.072 117.09 205.947C117.09 208.954 115.16 210.05 112.479 208.782C111.637 208.261 110.859 207.64 110.163 206.935C104.201 201.672 98.9902 195.871 96.8243 188.438C94.4141 191.972 91.7855 195.352 88.9539 198.557C87.7315 199.803 85.0723 199.609 83.0565 200.06C82.4195 198.313 82.107 196.464 82.1344 194.604C83.85 186.913 87.3455 180.34 94.7441 176.473C95.3214 176.071 95.7966 175.538 96.1318 174.919C96.467 174.3 96.6527 173.611 96.6741 172.907C96.5026 165.581 96.0737 158.277 95.6233 150.973C95.6233 150.608 94.1007 149.877 93.9077 150.028C89.1255 154.11 83.657 157.676 79.9041 162.552C72.9773 171.618 73.7922 182.058 77.1377 192.434C81.9199 207.279 97.4247 223.691 115.932 221.693C118.001 221.545 119.982 220.799 121.636 219.545C124.739 217.077 128.223 215.133 131.951 213.788C138.452 211.959 145.045 210.474 151.702 209.341C153.16 209.04 155.605 209.083 156.163 209.921C156.56 210.699 156.795 211.549 156.854 212.421C156.913 213.292 156.795 214.167 156.506 214.991C155.514 217.555 153.97 219.868 151.983 221.766C149.996 223.663 147.615 225.098 145.011 225.968C139.393 228.245 133.645 227.494 127.855 226.892L127.576 226.892L127.855 226.892L133.066 229.792C136.51 231.642 139.469 234.279 141.705 237.489C143.941 240.698 145.389 244.391 145.933 248.267C146.791 253.96 144.046 255.85 138.964 253.315C135.182 251.535 131.59 249.375 128.241 246.871C121.808 241.779 116.704 235.7 117.733 226.634C117.991 224.486 116.639 224.658 115.288 224.679C100.856 224.937 89.9404 218.364 81.3838 207.193C79.8397 205.195 78.3386 203.154 76.8375 201.135C76.8373 201.896 76.9382 202.655 77.1377 203.39C81.3195 214.131 85.0724 225.238 94.1007 233.315C101.006 239.481 102.915 247.923 103.815 256.581C103.987 258.192 102.314 259.996 101.499 261.715C100.07 261.049 98.7294 260.204 97.5105 259.202C90.7399 252.21 85.5731 243.823 82.3703 234.626C81.491 236.473 80.7619 238.149 79.9255 239.782C77.6409 244.651 73.6155 248.484 68.6454 250.523C63.8846 252.435 60.7322 250.372 61.8688 245.818C63.2526 240.214 65.237 234.776 67.7876 229.599C68.7514 227.541 70.2102 225.755 72.033 224.402C73.8559 223.048 75.9857 222.169 78.2314 221.844C81.491 221.435 81.1693 220.533 79.9041 218.364C78.6752 216.393 77.6751 214.288 76.9232 212.091C75.2452 206.934 73.8704 201.683 72.8058 196.365C72.2576 192.026 71.9782 187.657 71.9694 183.283C70.173 185.242 68.6112 187.405 67.3158 189.727C61.5686 198.063 55.9499 199.008 49.0446 197.59C45.2274 196.795 44.7556 195.12 46.9001 191.983C52.5616 184.099 59.2311 177.547 69.3746 176.022C70.8972 175.785 71.5191 175.549 71.7335 173.766C72.108 169.94 73.267 166.233 75.1379 162.876C77.0088 159.52 79.5513 156.587 82.6062 154.26C89.2756 149.104 96.3096 144.378 103.365 139.673C110.717 135.075 117.369 129.438 123.116 122.938C120.01 122.759 116.894 122.997 113.852 123.647C105.66 125.602 97.6177 128.245 89.3399 129.748C87.1376 129.967 85.0567 130.862 83.3827 132.312C81.7087 133.762 80.5235 135.696 79.9899 137.847C78.3716 142.709 76.2964 147.406 73.7923 151.875C72.3318 154.307 70.4049 156.425 68.1227 158.106C65.8406 159.787 63.2486 160.999 60.4963 161.671C56.8078 162.702 55.0493 161.048 55.6283 157.375C55.8247 156.4 56.1045 155.444 56.4646 154.518C59.5908 145.629 65.2222 137.839 72.6771 132.09L67.4445 131.016C61.2898 129.727 55.521 127.686 51.9612 122.101C51.4291 121.35 51.0639 120.493 50.89 119.589C50.7161 118.685 50.7377 117.754 50.9532 116.859C51.5837 116.151 52.3623 115.592 53.2335 115.221C54.1046 114.849 55.0468 114.675 55.9928 114.711C60.4774 114.767 64.9062 115.715 69.022 117.5C73.1378 119.285 76.8586 121.871 79.9685 125.108C80.8572 126.183 82.0497 126.963 83.3892 127.347C84.7288 127.73 86.1528 127.699 87.4742 127.256C95.4303 125.108 103.386 122.96 111.407 121.005C115.546 120.017 119.685 118.706 124.102 120.318C124.798 120.412 125.505 120.334 126.163 120.09C126.821 119.847 127.41 119.445 127.877 118.921C133.302 111.402 139.264 104.12 143.617 95.9995C151.678 81.3507 154.87 64.5107 152.732 47.9217C152.002 42.057 148.443 32.304 145.397 28.9957C145.011 31.3803 144.647 34.0011 144.154 36.6004C143.153 40.4047 143.62 44.4472 145.462 47.9217C147.915 52.3234 148.85 57.4129 148.121 62.4009C147.499 66.9552 145.976 71.1443 141.923 73.8081C138.149 76.2141 135.49 75.0971 135.833 70.7576C136.267 65.487 137.033 60.2491 138.127 55.0754C138.728 51.9389 139.886 48.9099 140.787 45.8379L139.779 45.4298C138.964 46.9765 138.085 48.4803 137.334 50.0485C133.281 58.4696 126.955 59.8875 118.87 59.866C116.897 59.866 115.053 59.0926 116.725 56.4288C121.508 48.3299 127.148 41.3911 137.463 40.4029C138.139 40.2938 138.782 40.0321 139.343 39.6376C139.904 39.2431 140.369 38.7262 140.701 38.1258C144.239 28.6305 142.095 21.2405 134.267 14.9247C132.985 13.8675 131.606 12.9325 130.15 12.132C106.217 -0.757501 82.9707 1.00403 60.7537 16.0632C52.8613 21.1364 46.7735 28.5809 43.3617 37.3309C41.6676 41.8637 41.5389 46.332 44.5626 50.0914C48.5943 55.0968 53.1406 59.7586 57.6227 64.3558C58.4161 65.1936 60.3248 65.1721 61.6972 65.1506C68.0235 65.1506 74.3498 64.4847 80.6332 64.721C86.9167 64.9573 92.8355 67.0197 95.8807 73.314C96.8028 75.226 98.5613 77.9327 96.1809 79.7587C94.3547 80.6232 92.2862 80.8281 90.3264 80.3388C83.4425 79.2861 76.623 77.9542 69.9965 76.7511C71.176 80.6395 72.3554 84.0552 73.1918 87.4924C73.2308 88.0433 73.1383 88.5956 72.922 89.1036C72.7057 89.6117 72.3719 90.0609 71.948 90.414C71.3904 90.7792 69.8035 90.2207 69.0744 89.5762C62.6408 83.9908 56.3574 78.2979 55.8213 68.8886C55.6971 67.8936 55.2529 66.9661 54.556 66.2463C49.9453 61.3053 45.2489 56.4503 40.4881 51.4234C41.2172 60.0164 42.4181 68.6093 46.4927 76.3645C49.3449 81.7995 52.5188 87.1057 57.7514 90.6933C67.466 97.4388 78.3601 99.4152 89.919 98.5773C90.3612 98.4826 90.7794 98.2985 91.1482 98.0362C91.5169 97.774 91.8284 97.4391 92.0635 97.0521C95.4303 91.3593 100.899 88.6954 106.753 86.6331C112.608 84.5708 118.012 82.8307 123.695 81.0907C125.069 80.8565 126.468 80.8059 127.855 80.9403C127.943 82.4978 127.769 84.0591 127.341 85.559C123.752 92.7916 117.478 98.3285 109.863 100.983C109.241 101.198 108.598 101.327 107.997 101.563C107.397 101.8 107.161 102.015 107.44 101.864C111.128 104.184 114.967 106.397 118.57 108.953C119 109.404 119.317 109.951 119.496 110.548C119.675 111.146 119.71 111.777 119.599 112.391C119.449 113.099 117.819 113.873 116.79 113.916C112.994 114.378 109.155 114.378 105.359 113.916C99.6765 112.777 94.1007 110.908 91.8061 104.464C91.5244 104.033 91.1518 103.669 90.7146 103.398C90.2774 103.127 89.7862 102.956 89.2756 102.895C86.3162 102.509 83.3139 102.423 80.333 102.165C69.3746 101.155 59.3812 97.8684 51.2749 89.9843C51.4894 91.2733 51.6824 92.5408 51.9183 93.8297C52.7395 97.3158 52.7588 100.943 51.9749 104.438C51.191 107.932 49.6244 111.203 47.3934 114.002C45.4848 116.343 43.8764 116.257 43.1044 113.744C39.6596 104.144 39.728 93.6308 43.2974 84.0767C43.7882 83.0253 44.0263 81.8734 43.9928 80.7132C43.9593 79.5531 43.655 78.4169 43.1044 77.3957C38.558 67.0841 36.0275 56.4717 37.9361 45.0216C39.3129 36.8939 42.6474 29.2251 47.6507 22.6799C42.8256 26.3319 38.1935 30.0698 33.8187 34.1085C31.1809 36.5575 27.3851 39.1999 26.9348 42.2289C26.4844 44.9142 29.6583 48.3084 31.3954 51.2945C36.2634 59.6297 36.4993 67.9219 31.1595 76.1067C29.8728 78.1046 28.4788 81.241 25.691 80.038C24.2541 79.415 23.4178 76.2356 23.1605 74.1303C22.367 67.4707 21.9595 60.7682 21.3805 53.679C20.0421 57.1422 17.5807 60.0543 14.3916 61.9477C11.2025 63.8411 7.47077 64.6059 3.79557 64.1195C2.42308 64.012 0.085565 63.5609 -0.0645504 62.8735C-0.212506 61.3542 0.182678 59.8317 1.0506 58.577C6.36898 50.6929 13.9176 45.3224 21.6378 39.9947C25.9269 37.0516 29.7655 33.55 33.7972 30.3491C30.0443 29.8765 26.9134 30.2417 23.8038 30.1128C20.7281 30.0762 17.6908 29.4246 14.8699 28.1961C12.049 26.9677 9.50152 25.1872 7.37689 22.9591C6.98311 22.4783 6.69388 21.9203 6.52771 21.3211C6.36154 20.7218 6.32208 20.0943 6.41187 19.4789C6.56199 18.77 8.10602 18.1041 9.13539 17.8677C11.2543 17.4099 13.4051 17.1155 15.5689 16.987C22.1954 16.6003 29.2294 15.6336 34.8695 19.8657C39.5659 23.4317 42.7398 23.0235 47.1146 19.5434C50.9318 16.5358 55.95 15.2469 59.9816 12.3897C71.9525 3.9253 86.3136 -0.478663 100.963 -0.177515C118.527 0.316596 133.903 7.62061 148.142 17.3951C150.68 19.2722 153.1 21.3025 155.391 23.4747C157.171 25.0214 158.457 25.6229 160.709 23.4747C163.349 21.3396 166.359 19.7086 169.587 18.6627C177.629 15.8699 185.178 20.059 192.941 21.0687C195.321 21.3694 195.064 23.1955 193.177 24.5703ZM167.443 73.0992C170.295 76.2571 173.576 79.0498 177.265 82.5514C177.951 72.8199 169.845 62.5727 160.988 61.1764C160.369 61.1957 159.759 61.3267 159.187 61.5631C159.344 62.179 159.582 62.7713 159.894 63.3246C162.468 66.6329 164.784 70.0487 167.55 73.0992L167.443 73.0992ZM164.676 98.6418C167.143 87.5783 163.647 79.0283 158.243 70.1561C156.27 80.7469 159.337 89.4043 164.784 98.6418L164.676 98.6418ZM127.04 163.089C127.16 164.011 127.61 164.858 128.306 165.474C128.563 165.667 129.807 165.023 130.45 164.507C136.026 159.48 138.235 152.735 139.586 145.667C140.251 142.187 140.465 138.621 141.001 134.109C130.6 141.843 126.333 151.295 127.148 163.068L127.04 163.089ZM99.1618 184.572C100.963 193.379 106.024 199.975 113.466 205.56C113.73 203.266 113.53 200.943 112.878 198.728C112.225 196.514 111.134 194.453 109.67 192.67C107.182 189.384 104.266 186.419 101.478 183.39C100.863 182.899 100.176 182.508 99.4405 182.23C99.2709 183.02 99.2347 183.834 99.3333 184.636L99.1618 184.572ZM91.1842 182.595C87.369 186.322 85.0755 191.338 84.7507 196.666C86.8037 195.229 88.6822 193.556 90.3479 191.682C91.8084 189.287 92.9817 186.727 93.8434 184.056C94.2413 182.783 94.5494 181.484 94.7655 180.168C93.5499 180.884 92.4078 181.719 91.3558 182.66L91.1842 182.595ZM144.218 222.553C146.997 220.862 149.58 218.866 151.917 216.602C152.753 215.829 152.86 214.282 153.311 213.079L149.579 212.821C141.773 214.303 133.345 215.141 125.99 219.889C125.128 220.356 124.346 220.958 123.673 221.672C123.438 221.973 124.145 223.519 124.317 223.519C131.179 222.982 138.042 226.119 144.389 222.617L144.218 222.553ZM124.231 238.407C128.327 244.014 134.224 247.429 140.272 250.566C141.012 250.812 141.787 250.935 142.567 250.931C142.809 250.065 142.911 249.165 142.867 248.267C141.846 242.668 138.664 237.697 134.01 234.432C130.75 232.284 127.126 230.501 123.845 228.31C120.564 226.119 120.585 227.773 120.264 230.651C121.413 233.374 122.798 235.99 124.403 238.471L124.231 238.407ZM85.6299 231.403C87.1315 235.923 88.9003 240.349 90.9269 244.658C93.0751 248.403 95.4828 251.992 98.1324 255.399C98.6989 255.971 99.3411 256.463 100.041 256.86L100.963 254.54C100.278 248.342 97.812 242.477 93.8648 237.655C91.7203 235.313 89.7045 232.95 87.5814 230.63C87.2165 230.332 86.8124 230.087 86.3805 229.9C86.1232 230.394 85.6085 231.06 85.7586 231.468L85.6299 231.403ZM80.2258 224.808C77.3999 225.55 74.7475 226.842 72.4198 228.611C67.6161 233.1 66.6296 239.567 64.9354 245.539C64.5923 247.923 66.072 248.525 67.5303 247.537C70.5421 245.868 73.1949 243.619 75.3363 240.92C77.8024 236.443 79.9522 231.799 81.7698 227.021C82.7349 225.324 82.0486 224.271 80.3544 224.873L80.2258 224.808ZM76.7517 200.834C76.7517 200.555 76.6016 200.275 76.5158 199.996C76.5158 200.125 76.3442 200.275 76.3657 200.318C76.4822 200.499 76.6112 200.671 76.7517 200.834ZM67.4874 179.351C61.9899 181.241 57.0761 184.528 53.2264 188.89C52.6642 189.497 52.1548 190.151 51.7038 190.845C50.9533 192.005 50.3099 193.208 49.5593 194.389L54.6418 196.129C57.6252 194.473 60.4221 192.499 62.9839 190.243C65.2564 187.407 67.2258 184.339 68.8599 181.091C69.0927 180.56 69.2375 179.994 69.2888 179.416C68.6984 179.276 68.0862 179.254 67.4874 179.351ZM56.9793 117.997C56.0216 118.056 55.0687 118.178 54.1271 118.363C54.5775 119.394 54.749 120.898 55.5211 121.37C59.0554 123.694 62.8126 125.659 66.7368 127.235C70.3825 128.101 74.102 128.619 77.8454 128.782L78.0384 127.557C71.755 122.831 65.4501 118.105 56.9793 118.04L56.9793 117.997ZM72.4412 136.386C66.3228 141.75 61.7223 148.633 59.1024 156.344C58.98 157.508 58.98 158.681 59.1024 159.845C62.1744 158.037 65.152 156.072 68.0235 153.959C72.6986 150.092 74.4571 144.442 76.4515 139.029C77.1591 137.074 77.6309 135.055 78.2099 133.057C76.1864 133.982 74.2549 135.097 72.4412 136.386ZM146.169 134.346C150.377 142.285 156.87 148.774 164.805 152.971C166.649 153.916 168.601 154.604 170.509 155.42C164.741 146.526 159.68 137.16 150.351 131.51C150.089 131.305 149.791 131.152 149.472 131.059C147.756 130.801 146.041 130.608 144.325 130.393C144.867 131.771 145.483 133.119 146.169 134.432L146.169 134.346ZM134.353 44.1193C131.526 44.9735 128.898 46.387 126.625 48.2762C124.352 50.1654 122.481 52.492 121.122 55.1184C120.993 55.3332 121.915 56.5362 122.43 56.5792C124.235 56.7868 126.063 56.5218 127.736 55.8102C129.408 55.0985 130.868 53.9646 131.973 52.519C133.621 50.0868 135.104 47.5462 136.412 44.9142C135.468 44.5275 134.803 44.0119 134.353 44.0119L134.353 44.1193ZM76.7088 74.4955C81.3409 75.5482 86.0588 76.2786 90.7553 77.1164C91.5373 77.2199 92.3255 77.2702 93.1143 77.2668C93.1309 76.3426 92.9708 75.4238 92.6425 74.56C91.2891 72.4778 89.4147 70.7871 87.2061 69.6563C84.9975 68.5256 82.5316 67.9943 80.0542 68.1152C73.9424 67.9434 67.8305 68.1152 61.6543 68.1152C65.6217 72.8414 71.3475 73.2925 76.7088 74.4955ZM67.9806 85.5805L69.1387 84.7641C67.7019 79.5224 65.2142 75.0756 60.1318 72.5621L59.0809 73.3355L67.9806 85.5805ZM96.1809 105.946C100.234 110.135 105.552 111.102 111.664 111.789L114.495 110.586C113.702 109.791 113.037 108.567 112.072 108.266C107.075 106.741 102.014 105.409 96.9529 104.077C96.4642 104.046 95.9744 104.119 95.5161 104.292C95.7306 104.85 95.7949 105.559 96.1809 105.946ZM100.062 99.5011C109.627 98.3196 118.612 94.689 123.824 84.6137C114.602 87.5139 105.703 88.9102 98.3683 94.4527C96.9383 95.7617 95.6318 97.2 94.4653 98.7492C96.2898 99.2568 98.1696 99.5382 100.062 99.587L100.062 99.5011ZM45.3132 111.209C50.2885 104.034 50.3314 96.515 45.7207 85.559C43.3093 93.9497 43.1687 102.832 45.3132 111.295L45.3132 111.209ZM15.1829 48.3084C11.3228 51.6597 7.69857 55.3117 4.03147 58.8992C3.5784 59.557 3.23106 60.2819 3.00209 61.0475L4.88926 61.5631C11.6016 60.7253 16.4053 57.7392 18.8714 51.5952C19.8365 49.2107 20.6514 46.7617 21.5306 44.3341C19.3019 45.4689 17.1778 46.7989 15.1829 48.3084ZM26.2057 73.8081C26.4146 74.4819 26.6653 75.142 26.9562 75.7845C27.5093 75.4462 28.0081 75.0261 28.4359 74.5385C31.7599 69.0604 33.2825 63.3032 30.5804 57.1162C29.2937 54.2591 27.7711 51.5307 25.9912 48.0076C23.8278 56.5079 23.8869 65.4232 26.1628 73.894L26.2057 73.8081ZM35.7273 23.5176C30.6662 19.6723 24.7474 19.5219 18.7857 19.973C16.1479 19.973 13.5102 19.973 10.8724 19.973C10.4088 20.0265 9.95435 20.1421 9.5214 20.3168C9.78803 20.8115 10.1119 21.2729 10.4864 21.6916C13.8794 24.8908 18.3952 26.62 23.0532 26.5037C27.1707 26.5037 31.2667 26.16 35.3627 25.9237C36.0079 25.7941 36.6346 25.5849 37.2284 25.3007C36.7835 24.6751 36.2651 24.1052 35.6844 23.6036L35.7273 23.5176ZM141.709 52.2397C140.808 57.5458 139.886 62.852 139.071 68.1797C139.078 69.1001 139.23 70.0137 139.521 70.8865C140.488 70.408 141.371 69.777 142.138 69.0175C145.933 63.6469 145.204 57.997 143.382 52.3256L141.709 52.2397ZM174.863 48.9314C175.479 48.7708 176.046 48.4609 176.514 48.0291C175.721 45.6016 175.399 42.5941 173.769 40.8969C170.39 37.6778 166.808 34.6785 163.047 31.9173C164.698 39.1784 170.081 43.8616 174.906 48.9314L174.863 48.9314ZM162.36 31.4662L162.725 31.638L162.725 31.4877C162.725 31.4877 162.489 31.4662 162.403 31.4662L162.36 31.4662ZM163.647 25.5156C171.946 25.2148 180.095 29.2535 188.094 24.1622C178.573 19.479 169.373 19.9301 163.69 25.5156L163.647 25.5156Z" fill="black" fill-opacity="0.1"/>
</g>
<defs>
<clipPath id="clip0_505_828">
<rect width="195" height="262" fill="white" transform="matrix(1 0 0 -1 0 262)"/>
</clipPath>
</defs>
</svg>
