<svg xmlns="http://www.w3.org/2000/svg">
	<symbol id="login" viewBox="0 0 25 25">
		<path d="M12.5 12.5C9.72656 12.5 7.5 10.2734 7.5 7.5C7.5 4.76562 9.72656 2.5 12.5 2.5C15.2344 2.5 17.5 4.76562 17.5 7.5C17.5 10.2734 15.2344 12.5 12.5 12.5ZM14.4531 14.375C18.2031 14.375 21.25 17.4219 21.25 21.1719C21.25 21.9141 20.625 22.5 19.8828 22.5H5.07812C4.33594 22.5 3.75 21.9141 3.75 21.1719C3.75 17.4219 6.75781 14.375 10.5078 14.375H14.4531Z"/>
	</symbol>
	<symbol id="cart" viewBox="0 0 25 25">
		<path d="M8.125 6.875C8.125 4.49219 10.0781 2.5 12.5 2.5C14.8828 2.5 16.875 4.49219 16.875 6.875V8.75H19.375C20.3906 8.75 21.25 9.60938 21.25 10.625V18.75C21.25 20.8203 19.5703 22.5 17.5 22.5H7.5C5.39062 22.5 3.75 20.8203 3.75 18.75V10.625C3.75 9.60938 4.57031 8.75 5.625 8.75H8.125V6.875ZM10 8.75H15V6.875C15 5.50781 13.8672 4.375 12.5 4.375C11.0938 4.375 10 5.50781 10 6.875V8.75ZM9.0625 12.5C9.57031 12.5 10 12.1094 10 11.5625C10 11.0547 9.57031 10.625 9.0625 10.625C8.51562 10.625 8.125 11.0547 8.125 11.5625C8.125 12.1094 8.51562 12.5 9.0625 12.5ZM15.9375 10.625C15.3906 10.625 15 11.0547 15 11.5625C15 12.1094 15.3906 12.5 15.9375 12.5C16.4453 12.5 16.875 12.1094 16.875 11.5625C16.875 11.0547 16.4453 10.625 15.9375 10.625Z"/>
	</symbol>
	<symbol id="filter" viewBox="0 0 20 20">
		<path d="M3.08203 4.25391C3.27344 3.87109 3.65625 3.625 4.09375 3.625H15.9062C16.3164 3.625 16.6992 3.87109 16.8906 4.25391C17.0547 4.63672 17 5.10156 16.7266 5.42969L11.75 11.5273V15C11.75 15.3555 11.5586 15.6562 11.2578 15.793C10.957 15.9297 10.6016 15.9023 10.3281 15.7109L8.57812 14.3984C8.35938 14.2344 8.25 13.9883 8.25 13.6875V11.5273L3.24609 5.42969C2.97266 5.10156 2.91797 4.63672 3.08203 4.25391Z"/>
	</symbol>
	<symbol id="search" viewBox="0 0 25 25">
		<path d="M22.0312 19.8438L17.3438 15.1562C18.3984 13.5938 18.9453 11.6406 18.6719 9.53125C18.1641 5.9375 15.2344 3.04688 11.6797 2.57812C6.36719 1.91406 1.875 6.40625 2.53906 11.7188C3.00781 15.2734 5.89844 18.2031 9.49219 18.7109C11.6016 18.9844 13.5547 18.4375 15.1562 17.3828L19.8047 22.0703C20.4297 22.6562 21.4062 22.6562 22.0312 22.0703C22.6172 21.4453 22.6172 20.4688 22.0312 19.8438ZM5.58594 10.625C5.58594 7.89062 7.8125 5.625 10.5859 5.625C13.3203 5.625 15.5859 7.89062 15.5859 10.625C15.5859 13.3984 13.3203 15.625 10.5859 15.625C7.8125 15.625 5.58594 13.3984 5.58594 10.625Z"/>
		<path d="M22.0312 19.8438L22.396 19.5018L22.3905 19.4959L22.3848 19.4902L22.0312 19.8438ZM17.3438 15.1562L16.9293 14.8765L16.6986 15.2183L16.9902 15.5098L17.3438 15.1562ZM18.6719 9.53125L19.1678 9.46697L19.167 9.46129L18.6719 9.53125ZM11.6797 2.57812L11.7451 2.08241L11.7417 2.08199L11.6797 2.57812ZM2.53906 11.7188L2.04291 11.7808L2.04335 11.7841L2.53906 11.7188ZM9.49219 18.7109L9.42223 19.2061L9.42791 19.2068L9.49219 18.7109ZM15.1562 17.3828L15.5113 17.0307L15.2231 16.7401L14.8813 16.9652L15.1562 17.3828ZM19.8047 22.0703L19.4497 22.4224L19.4561 22.4289L19.4627 22.4351L19.8047 22.0703ZM22.0312 22.0703L22.3732 22.4351L22.385 22.424L22.396 22.4123L22.0312 22.0703ZM22.3848 19.4902L17.6973 14.8027L16.9902 15.5098L21.6777 20.1973L22.3848 19.4902ZM17.7582 15.436C18.8769 13.7786 19.4577 11.7042 19.1677 9.46697L18.176 9.59553C18.4329 11.5771 17.92 13.4089 16.9293 14.8765L17.7582 15.436ZM19.167 9.46129C18.6278 5.64581 15.5229 2.58059 11.7451 2.08242L11.6143 3.07383C14.9459 3.51316 17.7003 6.22919 18.1768 9.60121L19.167 9.46129ZM11.7417 2.08199C6.10567 1.37748 1.33842 6.14473 2.04292 11.7808L3.0352 11.6567C2.41158 6.66777 6.62871 2.45064 11.6177 3.07426L11.7417 2.08199ZM2.04335 11.7841C2.54153 15.5619 5.60675 18.6669 9.42223 19.206L9.56214 18.2159C6.19013 17.7394 3.4741 14.9849 3.03477 11.6534L2.04335 11.7841ZM9.42791 19.2068C11.6662 19.4969 13.7385 18.9151 15.4312 17.8004L14.8813 16.9652C13.3709 17.9599 11.5369 18.4718 9.55646 18.2151L9.42791 19.2068ZM14.8012 17.7349L19.4497 22.4224L20.1597 21.7182L15.5113 17.0307L14.8012 17.7349ZM19.4627 22.4351C20.28 23.2013 21.5559 23.2013 22.3732 22.4351L21.6893 21.7055C21.2566 22.1112 20.5793 22.1112 20.1467 21.7055L19.4627 22.4351ZM22.396 22.4123C23.1623 21.595 23.1623 20.3191 22.396 19.5018L21.6665 20.1857C22.0721 20.6184 22.0721 21.2957 21.6665 21.7283L22.396 22.4123ZM6.08594 10.625C6.08594 8.16422 8.09118 6.125 10.5859 6.125V5.125C7.53382 5.125 5.08594 7.61703 5.08594 10.625H6.08594ZM10.5859 6.125C13.0442 6.125 15.0859 8.16677 15.0859 10.625H16.0859C16.0859 7.61448 13.5965 5.125 10.5859 5.125V6.125ZM15.0859 10.625C15.0859 13.1198 13.0467 15.125 10.5859 15.125V16.125C13.5939 16.125 16.0859 13.6771 16.0859 10.625H15.0859ZM10.5859 15.125C8.08864 15.125 6.08594 13.1223 6.08594 10.625H5.08594C5.08594 13.6746 7.53636 16.125 10.5859 16.125V15.125Z"/>
	</symbol>
	<symbol id="cancel" viewBox="0 0 50 50">
		<path d="M 9.15625 6.3125 L 6.3125 9.15625 L 22.15625 25 L 6.21875 40.96875 L 9.03125 43.78125 L 25 27.84375 L 40.9375 43.78125 L 43.78125 40.9375 L 27.84375 25 L 43.6875 9.15625 L 40.84375 6.3125 L 25 22.15625 Z"/>
	</symbol>
	<symbol id="favorite" viewBox="0 0 25 25">
		<path d="M12.0312 5.78125L12.4609 6.25L12.9297 5.82031C14.2188 4.53125 16.0547 3.94531 17.8125 4.25781C20.5078 4.6875 22.5 7.03125 22.5 9.76562V9.96094C22.5 11.6016 21.7969 13.1641 20.625 14.2578L13.5547 20.8594C13.2812 21.1328 12.8906 21.25 12.5 21.25C12.0703 21.25 11.6797 21.1328 11.4062 20.8594L4.33594 14.2578C3.16406 13.1641 2.5 11.6016 2.5 9.96094V9.76562C2.5 7.03125 4.45312 4.6875 7.14844 4.25781C8.90625 3.94531 10.7422 4.53125 12.0312 5.78125C12.0312 5.82031 11.9922 5.78125 12.0312 5.78125ZM12.4609 8.90625L10.7031 7.10938C9.84375 6.28906 8.63281 5.89844 7.46094 6.09375C5.66406 6.40625 4.375 7.92969 4.375 9.76562V9.96094C4.375 11.0938 4.80469 12.1484 5.625 12.8906L12.5 19.2969L19.3359 12.8906C20.1562 12.1484 20.625 11.0938 20.625 9.96094V9.76562C20.625 7.92969 19.2969 6.40625 17.5 6.09375C16.3281 5.89844 15.1172 6.28906 14.2578 7.10938L12.4609 8.90625Z"/>
	</symbol>
	<symbol id="send" viewBox="0 0 20 20">
		<path d="M17.6562 2.15625C17.9062 2.3125 18.0312 2.59375 17.9375 2.875L15.9375 16.375C15.9062 16.5938 15.7812 16.8125 15.5625 16.9062C15.4688 16.9688 15.3438 17.0312 15.2188 17.0312C15.0938 17.0312 15 17 14.9062 16.9688L11.8438 15.6562L8.375 17.9062C8.25 17.9688 8.09375 18 7.96875 18C7.875 18 7.75 17.9688 7.625 17.9375C7.375 17.7812 7.25 17.5312 7.25 17.25V13.7188L2.4375 11.7188C2.1875 11.5938 2 11.3438 2 11.0625C1.96875 10.7812 2.125 10.5 2.375 10.375L16.875 2.125C17.125 1.96875 17.4375 2 17.6562 2.15625ZM13.5312 5.75L4.4375 10.9062L7.6875 12.2812L13.5312 5.75ZM8.71875 15.875L10.1562 14.9688L8.71875 14.3438V15.875ZM14.625 15.1875L16.125 5.09375L9.125 12.875L14.625 15.1875Z"/>
	</symbol>

	<symbol id="facebook" viewBox="0 0 25 25">
		<path d="M17.1484 13.75H14.2188V22.5H10.3125V13.75H7.10938V10.1562H10.3125V7.38281C10.3125 4.25781 12.1875 2.5 15.0391 2.5C16.4062 2.5 17.8516 2.77344 17.8516 2.77344V5.85938H16.25C14.6875 5.85938 14.2188 6.79688 14.2188 7.8125V10.1562H17.6953L17.1484 13.75Z"/>
	</symbol>
	<symbol id="twitter" viewBox="0 0 25 25">
		<path d="M20.4297 8.4375C20.4297 8.63281 20.4297 8.78906 20.4297 8.98438C20.4297 14.4141 16.3281 20.625 8.78906 20.625C6.44531 20.625 4.29688 19.9609 2.5 18.7891C2.8125 18.8281 3.125 18.8672 3.47656 18.8672C5.39062 18.8672 7.14844 18.2031 8.55469 17.1094C6.75781 17.0703 5.23438 15.8984 4.72656 14.2578C5 14.2969 5.23438 14.3359 5.50781 14.3359C5.85938 14.3359 6.25 14.2578 6.5625 14.1797C4.6875 13.7891 3.28125 12.1484 3.28125 10.1562V10.1172C3.82812 10.4297 4.49219 10.5859 5.15625 10.625C4.02344 9.88281 3.32031 8.63281 3.32031 7.22656C3.32031 6.44531 3.51562 5.74219 3.86719 5.15625C5.89844 7.61719 8.94531 9.25781 12.3438 9.45312C12.2656 9.14062 12.2266 8.82812 12.2266 8.51562C12.2266 6.25 14.0625 4.41406 16.3281 4.41406C17.5 4.41406 18.5547 4.88281 19.3359 5.70312C20.2344 5.50781 21.1328 5.15625 21.9141 4.6875C21.6016 5.66406 20.9766 6.44531 20.1172 6.95312C20.9375 6.875 21.7578 6.64062 22.4609 6.32812C21.9141 7.14844 21.2109 7.85156 20.4297 8.4375Z"/>
	</symbol>
	<symbol id="linkdln" viewBox="0 0 25 25">
		<path d="M7.65625 20H4.02344V8.32031H7.65625V20ZM5.82031 6.75781C4.6875 6.75781 3.75 5.78125 3.75 4.60938C3.75 3.00781 5.46875 1.99219 6.875 2.8125C7.53906 3.16406 7.92969 3.86719 7.92969 4.60938C7.92969 5.78125 6.99219 6.75781 5.82031 6.75781ZM21.2109 20H17.6172V14.3359C17.6172 12.9688 17.5781 11.25 15.7031 11.25C13.8281 11.25 13.5547 12.6953 13.5547 14.2188V20H9.92188V8.32031H13.3984V9.92188H13.4375C13.9453 9.02344 15.1172 8.04688 16.875 8.04688C20.5469 8.04688 21.25 10.4688 21.25 13.5938V20H21.2109Z"/>
	</symbol>
	<symbol id="instagram" viewBox="0 0 25 25">
		<path d="M12.5 8.00781C14.9609 8.00781 16.9922 10.0391 16.9922 12.5C16.9922 15 14.9609 16.9922 12.5 16.9922C10 16.9922 8.00781 15 8.00781 12.5C8.00781 10.0391 10 8.00781 12.5 8.00781ZM12.5 15.4297C14.1016 15.4297 15.3906 14.1406 15.3906 12.5C15.3906 10.8984 14.1016 9.60938 12.5 9.60938C10.8594 9.60938 9.57031 10.8984 9.57031 12.5C9.57031 14.1406 10.8984 15.4297 12.5 15.4297ZM18.2031 7.85156C18.2031 7.26562 17.7344 6.79688 17.1484 6.79688C16.5625 6.79688 16.0938 7.26562 16.0938 7.85156C16.0938 8.4375 16.5625 8.90625 17.1484 8.90625C17.7344 8.90625 18.2031 8.4375 18.2031 7.85156ZM21.1719 8.90625C21.25 10.3516 21.25 14.6875 21.1719 16.1328C21.0938 17.5391 20.7812 18.75 19.7656 19.8047C18.75 20.8203 17.5 21.1328 16.0938 21.2109C14.6484 21.2891 10.3125 21.2891 8.86719 21.2109C7.46094 21.1328 6.25 20.8203 5.19531 19.8047C4.17969 18.75 3.86719 17.5391 3.78906 16.1328C3.71094 14.6875 3.71094 10.3516 3.78906 8.90625C3.86719 7.5 4.17969 6.25 5.19531 5.23438C6.25 4.21875 7.46094 3.90625 8.86719 3.82812C10.3125 3.75 14.6484 3.75 16.0938 3.82812C17.5 3.90625 18.75 4.21875 19.7656 5.23438C20.7812 6.25 21.0938 7.5 21.1719 8.90625ZM19.2969 17.6562C19.7656 16.5234 19.6484 13.7891 19.6484 12.5C19.6484 11.25 19.7656 8.51562 19.2969 7.34375C18.9844 6.60156 18.3984 5.97656 17.6562 5.70312C16.4844 5.23438 13.75 5.35156 12.5 5.35156C11.2109 5.35156 8.47656 5.23438 7.34375 5.70312C6.5625 6.01562 5.97656 6.60156 5.66406 7.34375C5.19531 8.51562 5.3125 11.25 5.3125 12.5C5.3125 13.7891 5.19531 16.5234 5.66406 17.6562C5.97656 18.4375 6.5625 19.0234 7.34375 19.3359C8.47656 19.8047 11.2109 19.6875 12.5 19.6875C13.75 19.6875 16.4844 19.8047 17.6562 19.3359C18.3984 19.0234 19.0234 18.4375 19.2969 17.6562Z"/>
	</symbol>
</svg>