<?xml version="1.0" encoding="UTF-8"?>
<svg xmlns="http://www.w3.org/2000/svg" xmlns:xlink="http://www.w3.org/1999/xlink" width="48px" height="48px" viewBox="0 0 48 48" version="1.1">
<g id="surface1">
<path style=" stroke:none;fill-rule:nonzero;fill:rgb(0%,0%,0%);fill-opacity:1;" d="M 24 39.101562 C 22.464844 39.101562 20.917969 38.71875 19.605469 37.6875 L 0 23.523438 L 0 43.5 C 0 45.984375 2.015625 48 4.5 48 L 43.5 48 C 45.984375 48 48 45.984375 48 43.585938 L 48 23.523438 L 28.398438 37.6875 C 27.085938 38.625 25.539062 39.101562 24 39.101562 Z M 46.273438 15.28125 C 45.449219 14.625 44.664062 14.015625 43.5 13.132812 L 43.5 9 C 43.5 6.515625 41.484375 4.5 39 4.5 L 31.734375 4.5 C 31.441406 4.289062 31.183594 4.101562 30.878906 3.890625 C 29.304688 2.730469 26.183594 -0.0351562 24 0 C 21.824219 -0.0351562 18.695312 2.730469 17.117188 3.890625 C 16.8125 4.101562 16.554688 4.289062 16.261719 4.5 L 9 4.5 C 6.515625 4.5 4.5 6.515625 4.5 9 L 4.5 13.136719 C 3.339844 14.015625 2.554688 14.625 1.722656 15.28125 C 0.632812 16.125 0 17.4375 0 18.824219 L 0 19.820312 L 9 26.324219 L 9 9 L 39 9 L 39 26.316406 L 48 19.8125 L 48 18.824219 C 48 17.4375 47.371094 16.125 46.273438 15.28125 Z M 16.5 23.914062 L 31.5 23.914062 C 32.328125 23.914062 33 23.242188 33 22.5 C 33 21.671875 32.328125 21 31.5 21 L 16.5 21 C 15.671875 21 15 21.671875 15 22.5 C 15 23.324219 15.675781 23.914062 16.5 23.914062 Z M 16.5 17.914062 L 31.5 17.914062 C 32.328125 17.914062 33 17.242188 33 16.414062 C 33 15.585938 32.328125 15 31.5 15 L 16.5 15 C 15.671875 15 15 15.671875 15 16.414062 C 15 17.324219 15.675781 17.914062 16.5 17.914062 Z M 16.5 17.914062 "/>
</g>
</svg>
