<svg width="30" height="40" viewBox="0 0 30 40" fill="none" xmlns="http://www.w3.org/2000/svg">
<path d="M25.3659 0H3.70732C1.65854 0 0 1.65854 0 3.70732V36.3902C0 38.3415 1.65854 40 3.70732 40H25.3659C27.4146 40 29.0732 38.3415 29.0732 36.2927V3.70732C29.0732 1.65854 27.4146 0 25.3659 0ZM27.122 3.70732V36.3902C27.122 37.3659 26.3415 38.1463 25.3659 38.1463H3.70732C2.73171 38.1463 1.95122 37.3659 1.95122 36.3902V3.70732C1.95122 2.73171 2.73171 1.95122 3.70732 1.95122H25.3659C26.3415 1.95122 27.122 2.73171 27.122 3.70732Z" fill="#2B2929"/>
<path d="M24.1955 32.7805L26.1467 29.8537C26.2443 29.6586 26.3419 29.3659 26.2443 29.0732C26.1467 28.7805 26.0492 28.5854 25.8541 28.4878C25.3663 28.1952 24.7809 28.2927 24.4882 28.7805L23.0248 31.0244L19.9028 26.3415L23.0248 21.6586L24.4882 23.9025C24.7809 24.2927 25.3663 24.4878 25.8541 24.1952C26.3419 23.9025 26.4394 23.3171 26.1467 22.8293L24.1955 19.9025L26.1467 16.9756C26.3419 16.7805 26.3419 16.5854 26.3419 16.2927C26.2443 16 26.1467 15.8049 25.9516 15.7074C25.4638 15.4147 24.8785 15.5122 24.5858 16L23.1224 18.2439L20.0004 13.561L23.1224 8.87809L24.5858 11.122C24.8785 11.5122 25.4638 11.7074 25.9516 11.4147C26.1467 11.3171 26.3419 11.0244 26.3419 10.8293C26.4394 10.5366 26.3419 10.3415 26.2443 10.0488L24.2931 7.12199L26.2443 4.19516C26.537 3.70736 26.4394 3.12199 25.9516 2.82931C25.7565 2.73175 25.4638 2.63418 25.1711 2.73175C24.8785 2.82931 24.6833 2.92687 24.5858 3.12199L23.1224 5.36589L21.6589 3.12199C21.5614 2.92687 21.2687 2.73175 21.0736 2.73175C20.7809 2.73175 20.5858 2.73175 20.2931 2.82931C19.8053 3.12199 19.7077 3.70736 20.0004 4.19516L21.9516 7.12199L18.8297 11.8049L15.7077 7.12199L17.6589 4.19516C17.9516 3.70736 17.8541 3.12199 17.3663 2.82931C17.1711 2.73175 16.8785 2.63418 16.5858 2.73175C16.2931 2.82931 16.098 2.92687 16.0004 3.12199L14.537 5.36589L13.0736 3.12199C12.7809 2.63419 12.1955 2.53662 11.7077 2.82931C11.2199 3.12199 11.1224 3.70736 11.415 4.19516L13.3663 7.12199L10.2443 11.8049L7.21992 7.21955L9.17114 4.29272C9.46382 3.80492 9.36626 3.21955 8.87845 2.92687C8.68333 2.73175 8.39065 2.63418 8.09797 2.73175C7.90284 2.73175 7.70772 2.92687 7.5126 3.12199L6.04919 5.46345L4.48821 3.12199C4.19553 2.73175 3.61016 2.53662 3.12236 2.82931C2.73211 3.21955 2.53699 3.80492 2.82967 4.19516L4.78089 7.12199L2.82967 10.0488C2.53699 10.5366 2.63455 11.122 3.12236 11.4147C3.5126 11.7074 4.19553 11.6098 4.48821 11.122L5.95162 8.87809L9.07358 13.561L5.95162 18.2439L4.48821 16C4.19553 15.5122 3.61016 15.4147 3.12236 15.7074C2.63455 16 2.53699 16.5854 2.82967 17.0732L4.78089 20L2.82967 22.9269C2.53699 23.4147 2.63455 24 3.12236 24.2927C3.5126 24.5854 4.19553 24.4878 4.48821 24L5.95162 21.7561L9.07358 26.4391L5.95162 31.122L4.48821 28.8781C4.19553 28.3903 3.61016 28.2927 3.12236 28.5854C2.92723 28.683 2.73211 28.9756 2.73211 29.1708C2.63455 29.4635 2.73211 29.6586 2.82967 29.9513L4.78089 32.8781L2.82967 35.8049C2.53699 36.2927 2.63455 36.8781 3.12236 37.1708C3.5126 37.4635 4.19553 37.3659 4.48821 36.8781L5.95162 34.6342L7.41504 36.8781C7.70772 37.2683 8.29309 37.4635 8.78089 37.1708C9.2687 36.8781 9.36626 36.2927 9.07358 35.8049L7.12236 32.8781L10.2443 28.1952L13.3663 32.8781L11.415 35.8049C11.1224 36.2927 11.2199 36.8781 11.7077 37.1708C12.098 37.4635 12.7809 37.3659 13.0736 36.8781L14.537 34.6342L16.0004 36.8781C16.2931 37.2683 16.8785 37.4635 17.3663 37.1708C17.8541 36.8781 17.9516 36.2927 17.6589 35.8049L15.7077 32.8781L18.8297 28.1952L21.9516 32.8781L20.0004 35.8049C19.7077 36.2927 19.8053 36.8781 20.2931 37.1708C20.6833 37.4635 21.3663 37.3659 21.6589 36.8781L23.1224 34.6342L24.5858 36.8781C24.7809 37.1708 25.0736 37.2683 25.3663 37.2683C25.5614 37.2683 25.7565 37.1708 25.9516 37.0732C26.4394 36.7805 26.537 36.1952 26.2443 35.7074L24.1955 32.7805ZM21.8541 20L18.7321 24.683L15.6102 20L18.7321 15.3171L21.8541 20ZM17.5614 26.4391L14.4394 31.122L11.3175 26.4391L14.4394 21.7561L17.5614 26.4391ZM11.415 13.561L14.537 8.87809L17.6589 13.561L14.537 18.2439L11.415 13.561ZM13.3663 20L10.2443 24.683L7.12236 20L10.2443 15.3171L13.3663 20Z" fill="#2B2929"/>
</svg>
