<svg width="1334" height="1398" viewBox="0 0 1334 1398" fill="none" xmlns="http://www.w3.org/2000/svg">
<path d="M1271.93 16.2898C1283.91 16.3536 1291.19 25.4111 1287.9 36.2333C1253.14 150.933 1197.7 242.798 1128.82 319.801C1122.32 327.058 1108.62 330.198 1098.4 326.987C1022.12 303.181 945.827 279.361 869.541 255.548C859.33 252.316 855.016 245.449 859.829 240.084C911.155 182.705 952.466 114.25 978.375 28.7775C980.802 20.776 992.334 14.1636 1004.34 14.2132C1093.54 14.9007 1182.73 15.6023 1271.93 16.2898ZM1365.51 29.1461C1368.22 29.1815 1369.81 31.3785 1369.03 33.9937C1366.06 43.9442 1362.95 53.7388 1359.72 63.3774C1358.85 65.9218 1355.95 67.8707 1353.28 67.7432C1336.59 66.9494 1319.91 66.1485 1303.23 65.3619C1300.58 65.2414 1299.07 63.1719 1299.88 60.7481C1302.98 51.563 1305.94 42.2291 1308.77 32.7464C1309.52 30.2446 1312.31 28.2318 1315 28.2743C1331.83 28.572 1348.67 28.8626 1365.51 29.1461ZM1333.6 119.296C1336.23 119.537 1337.59 121.663 1336.58 124.03C1332.73 133.01 1328.75 141.833 1324.65 150.529C1323.58 152.826 1320.55 154.427 1317.94 154.115C1301.72 152.188 1285.5 150.274 1269.28 148.368C1266.7 148.049 1265.43 146.036 1266.47 143.86C1270.37 135.575 1274.16 127.141 1277.82 118.58C1278.79 116.333 1281.72 114.682 1284.33 114.909C1300.75 116.369 1317.17 117.836 1333.6 119.296ZM1293.67 200.636C1296.23 201.047 1297.36 203.088 1296.13 205.229C1291.49 213.336 1286.71 221.31 1281.83 229.155C1280.57 231.196 1277.45 232.479 1274.94 232.018C1259.27 229.084 1243.62 226.143 1227.96 223.209C1225.48 222.748 1224.43 220.764 1225.63 218.822C1230.29 211.338 1234.83 203.733 1239.26 196.008C1240.42 193.995 1243.43 192.677 1245.97 193.074C1261.87 195.597 1277.77 198.113 1293.67 200.636ZM1246.54 273.982C1249 274.542 1249.86 276.576 1248.48 278.461C1243.12 285.782 1237.64 292.983 1232.08 300.063C1230.61 301.934 1227.46 302.905 1225.03 302.295C1210.03 298.447 1195.02 294.599 1180.02 290.743C1177.64 290.134 1176.78 288.22 1178.18 286.441C1183.49 279.68 1188.71 272.82 1193.82 265.846C1195.14 264.046 1198.25 262.997 1200.68 263.542C1215.97 267.022 1231.25 270.502 1246.54 273.982ZM1192.98 340.205C1195.31 340.914 1195.98 342.898 1194.39 344.649C1188.4 351.247 1182.31 357.753 1176.14 364.16C1174.51 365.847 1171.31 366.598 1169.01 365.847C1154.74 361.169 1140.45 356.492 1126.17 351.821C1123.91 351.063 1123.3 349.149 1124.85 347.547C1130.74 341.438 1136.54 335.237 1142.25 328.936C1143.75 327.271 1146.89 326.498 1149.21 327.179C1163.81 331.516 1178.38 335.868 1192.98 340.205ZM1084.65 341.36C1094.77 344.656 1097.49 353.012 1090.56 359.794C1017.09 431.723 931.47 490.249 840.943 543.34C832.403 548.35 819.435 548.003 812.101 542.638C757.115 502.772 702.141 462.921 647.155 423.055C639.801 417.69 638.992 410.362 645.308 406.662C712.764 367.094 776.567 323.493 831.311 269.893C836.447 264.861 848.728 263.401 858.858 266.696C934.119 291.58 1009.39 316.463 1084.65 341.36ZM1133.76 400.199C1136 401.021 1136.41 402.984 1134.68 404.557C1128.14 410.56 1121.52 416.471 1114.82 422.304C1113.07 423.835 1109.84 424.373 1107.68 423.487C1094.2 418.058 1080.72 412.63 1067.24 407.215C1065.1 406.35 1064.72 404.437 1066.39 402.984C1072.77 397.435 1079.08 391.793 1085.32 386.074C1086.97 384.571 1090.11 384.018 1092.3 384.819C1106.12 389.95 1119.94 395.067 1133.76 400.199ZM1069.66 454.827C1071.75 455.755 1071.97 457.697 1070.13 459.129C1063.11 464.615 1056.04 470.029 1048.89 475.38C1047.02 476.776 1043.84 477.095 1041.81 476.124C1029.18 470.008 1016.57 463.899 1003.94 457.775C1001.95 456.811 1001.74 454.919 1003.52 453.594C1010.33 448.498 1017.09 443.346 1023.78 438.108C1025.53 436.733 1028.64 436.386 1030.7 437.307C1043.69 443.154 1056.68 448.987 1069.66 454.827ZM1001.49 504.927C1003.45 505.962 1003.45 507.903 1001.53 509.215C994.121 514.282 986.673 519.286 979.164 524.232C977.189 525.536 974.062 525.692 972.181 524.601C960.46 517.861 948.752 511.107 937.031 504.36C935.177 503.297 935.151 501.404 937.031 500.178C944.189 495.465 951.293 490.696 958.364 485.862C960.177 484.622 963.298 484.416 965.205 485.458C977.297 491.936 989.402 498.428 1001.49 504.927ZM930.035 551.377C931.834 552.51 931.652 554.46 929.617 555.7C921.926 560.427 914.188 565.097 906.424 569.74C904.375 570.959 901.281 570.994 899.555 569.81C888.778 562.468 878.014 555.14 867.243 547.812C865.538 546.628 865.713 544.736 867.668 543.566C875.082 539.144 882.456 534.693 889.789 530.186C891.723 529.016 894.763 528.967 896.536 530.086C907.704 537.181 918.866 544.275 930.035 551.377ZM607.738 408.505C609.383 409.745 609.558 411.411 608.129 412.211C602.717 415.273 597.284 418.321 591.831 421.347C590.395 422.134 587.935 421.765 586.365 420.489C576.578 412.594 566.784 404.706 556.991 396.811C555.414 395.542 555.245 393.919 556.573 393.175C561.662 390.354 566.717 387.52 571.766 384.663C573.093 383.919 575.5 384.295 577.137 385.521C587.335 393.189 597.54 400.851 607.738 408.505ZM856.054 595.055C857.699 596.274 857.335 598.259 855.259 599.428C847.339 603.914 839.399 608.358 831.439 612.78C829.336 613.943 826.343 613.844 824.759 612.589C814.966 604.701 805.172 596.806 795.379 588.918C793.822 587.663 794.186 585.728 796.174 584.616C803.77 580.392 811.34 576.146 818.895 571.88C820.884 570.753 823.829 570.852 825.454 572.057C835.658 579.726 845.863 587.387 856.054 595.055ZM780.321 636.827C781.811 638.146 781.319 640.144 779.189 641.278C771.141 645.616 763.059 649.932 754.978 654.241C752.868 655.346 749.983 655.155 748.561 653.808C739.765 645.375 730.963 636.948 722.173 628.514C720.771 627.189 721.27 625.197 723.272 624.134C730.983 620.031 738.673 615.913 746.364 611.781C748.379 610.704 751.224 610.895 752.68 612.206C761.887 620.413 771.107 628.613 780.321 636.827ZM703.665 677.537C704.992 678.947 704.332 681.009 702.222 682.122C694.107 686.388 685.992 690.669 677.877 694.936C675.74 696.063 672.997 695.786 671.75 694.355C663.951 685.389 656.153 676.431 648.354 667.473C647.114 666.048 647.728 664.021 649.756 662.944C657.494 658.869 665.232 654.801 672.977 650.718C674.978 649.669 677.722 649.946 679.022 651.335C687.239 660.074 695.455 668.798 703.665 677.537ZM626.853 718.076C628.013 719.571 627.217 721.718 625.094 722.845C617.019 727.133 608.951 731.449 600.903 735.779C598.78 736.913 596.158 736.609 595.066 735.078C588.266 725.595 581.465 716.098 574.671 706.615C573.592 705.099 574.34 702.987 576.362 701.881C584.039 697.756 591.73 693.66 599.434 689.557C601.456 688.479 604.065 688.812 605.21 690.279C612.422 699.542 619.641 708.805 626.853 718.076ZM550.655 759.302C551.666 760.875 550.756 763.115 548.667 764.277C540.693 768.7 532.753 773.143 524.84 777.63C522.764 778.799 520.29 778.459 519.36 776.843C513.544 766.807 507.733 756.772 501.917 746.751C500.993 745.149 501.863 742.909 503.838 741.797C511.38 737.53 518.956 733.285 526.559 729.061C528.554 727.948 531.001 728.331 531.992 729.904C538.213 739.692 544.434 749.493 550.655 759.302ZM471.276 727.587C475.273 734.794 471.552 744.624 463.012 749.642C372.484 802.726 286.87 861.245 213.402 933.173C206.46 939.963 199.962 938.113 198.728 928.878C189.393 860.281 180.045 791.677 170.709 723.079C169.476 713.852 172.549 702.172 177.672 697.161C232.423 643.56 296.219 599.953 363.675 560.384C369.984 556.685 378.409 559.548 382.413 566.728C412.036 620.35 441.659 673.979 471.276 727.587ZM475.839 802.095C476.681 803.767 475.731 806.099 473.682 807.318C465.897 811.96 458.152 816.645 450.448 821.372C448.447 822.598 446.162 822.216 445.38 820.522C440.534 809.912 435.681 799.302 430.834 788.714C430.073 787.027 431.01 784.66 432.904 783.498C440.25 778.99 447.638 774.518 455.059 770.096C457.007 768.941 459.265 769.366 460.094 771.003C465.344 781.372 470.595 791.74 475.839 802.095ZM403.233 847.29C403.927 849.048 402.889 851.528 400.935 852.825C393.426 857.779 385.972 862.776 378.571 867.843C376.623 869.168 374.547 868.779 373.92 866.964C370.004 855.752 366.088 844.547 362.165 833.35C361.545 831.564 362.509 829.083 364.369 827.807C371.426 822.981 378.537 818.211 385.695 813.484C387.549 812.265 389.652 812.697 390.339 814.434C394.633 825.383 398.933 836.34 403.233 847.29ZM333.607 895.76C334.146 897.638 333.068 900.281 331.18 901.692C324.049 907.036 316.965 912.443 309.962 917.922C308.115 919.36 306.208 918.992 305.729 917.078C302.703 905.228 299.67 893.371 296.637 881.507C296.158 879.622 297.189 876.936 298.949 875.568C305.635 870.331 312.375 865.171 319.183 860.09C320.969 858.743 322.883 859.19 323.429 861.011C326.819 872.599 330.217 884.186 333.607 895.76ZM267.728 948.397C268.139 950.367 267.034 953.223 265.268 954.754C258.575 960.58 251.956 966.483 245.411 972.486C243.686 974.081 242.001 973.719 241.65 971.685C239.453 959.12 237.256 946.554 235.065 933.974C234.714 931.99 235.766 929.098 237.404 927.589C243.639 921.876 249.954 916.242 256.337 910.686C258.015 909.211 259.727 909.644 260.132 911.593C262.666 923.861 265.2 936.122 267.728 948.397ZM164.138 689.153C164.414 691.243 163.747 693.873 162.635 695.035C158.409 699.415 154.243 703.866 150.138 708.387C149.073 709.578 148.015 708.784 147.786 706.644C146.364 693.292 144.942 679.932 143.519 666.587C143.284 664.439 143.924 661.796 144.908 660.704C148.736 656.487 152.612 652.334 156.555 648.245C157.586 647.182 158.651 647.997 158.928 650.102C160.667 663.107 162.399 676.126 164.138 689.153ZM206.379 1006.06C206.655 1008.16 205.577 1011.2 203.945 1012.9C197.771 1019.3 191.678 1025.81 185.686 1032.44C184.129 1034.15 182.66 1033.83 182.431 1031.67C181.008 1018.32 179.586 1004.97 178.164 991.615C177.928 989.503 178.973 986.377 180.449 984.74C186.171 978.44 191.975 972.238 197.866 966.115C199.409 964.513 200.899 964.945 201.175 966.994C202.907 980.02 204.646 993.039 206.379 1006.06ZM16.0485 1256.73C12.766 1267.56 10.8249 1266.43 11.445 1253.93C16.0351 1161.15 20.6319 1068.37 25.2287 975.569C25.869 963.082 28.1877 946.263 30.6141 938.269C56.5168 852.79 97.8275 784.348 149.161 726.956C153.967 721.591 158.894 724.915 160.026 734.242C168.344 803.909 176.661 873.57 184.978 943.244C186.118 952.578 181.635 965.902 175.138 973.167C106.253 1050.17 50.8145 1142.03 16.0485 1256.73ZM150.367 1069.59C150.536 1071.82 149.464 1075.14 148.015 1076.99C142.448 1084.07 136.975 1091.26 131.616 1098.58C130.201 1100.5 128.981 1100.2 128.866 1097.9C128.138 1083.69 127.417 1069.47 126.689 1055.25C126.581 1052.99 127.559 1049.65 128.893 1047.81C134.009 1040.84 139.226 1033.98 144.537 1027.22C145.919 1025.47 147.2 1025.85 147.355 1028.05C148.359 1041.89 149.363 1055.74 150.367 1069.59ZM100.47 1139.87C100.537 1142.23 99.5126 1145.85 98.2319 1147.92C93.3588 1155.76 88.6002 1163.72 83.9562 1171.82C82.7429 1173.95 81.7252 1173.71 81.7117 1171.26C81.6038 1156.1 81.496 1140.92 81.3814 1125.75C81.3679 1123.35 82.2913 1119.69 83.4574 1117.65C87.879 1109.93 92.4219 1102.34 97.0726 1094.86C98.2926 1092.9 99.3441 1093.24 99.4047 1095.58C99.762 1110.35 100.112 1125.1 100.47 1139.87ZM57.4604 1217.75C57.4334 1220.3 56.51 1224.23 55.4248 1226.51C51.3268 1235.21 47.3501 1244.03 43.5082 1253.01C42.4836 1255.38 41.7355 1255.19 41.8029 1252.57C42.2073 1236.34 42.6184 1220.11 43.0296 1203.88C43.0903 1201.31 43.9193 1197.33 44.8899 1195.07C48.5566 1186.51 52.3446 1178.09 56.2606 1169.81C57.2784 1167.63 58.1007 1167.93 58.0737 1170.43C57.8715 1186.2 57.6693 1201.99 57.4604 1217.75ZM22.1147 1304.16C22.0069 1306.89 21.225 1311.12 20.369 1313.67C17.1135 1323.32 14.0062 1333.11 11.0406 1343.09C10.2722 1345.66 9.75991 1345.53 9.88798 1342.72C10.7103 1325.32 11.5393 1307.92 12.3616 1290.51C12.4964 1287.75 13.2042 1283.41 13.9321 1280.94C16.7563 1271.45 19.7287 1262.1 22.8292 1252.91C23.638 1250.49 24.2244 1250.77 24.1166 1253.45C23.4425 1270.36 22.782 1287.26 22.1147 1304.16ZM32.4475 866.815C32.5755 864.002 33.081 860.394 33.5731 858.743C35.4671 852.393 37.4487 846.142 39.5179 839.997C40.0639 838.396 40.4211 839.274 40.3133 841.996C39.6528 858.885 38.9855 875.795 38.3182 892.698C38.2103 895.427 37.6509 899.013 37.0645 900.756C34.8402 907.362 32.7103 914.059 30.6815 920.87C30.1558 922.649 29.8457 921.827 29.9738 919.027C30.7961 901.621 31.6184 884.215 32.4475 866.815ZM52.9916 808.778C53.0523 806.17 53.6252 802.846 54.2723 801.329C56.719 795.603 59.2533 789.983 61.8685 784.433C62.5627 782.973 63.1019 783.838 63.0682 786.368C62.866 802.152 62.6571 817.921 62.4549 833.704C62.4144 836.241 61.7876 839.586 61.0462 841.146C58.2423 847.085 55.5192 853.13 52.8905 859.268C52.2098 860.883 51.6908 860.083 51.7649 857.475C52.1693 841.238 52.5805 825.015 52.9916 808.778ZM78.6786 756.446C78.6651 753.994 79.2852 750.918 80.0603 749.571C83.0193 744.405 86.0524 739.323 89.1596 734.334C89.9819 733.023 90.6964 733.859 90.757 736.233C91.1143 750.989 91.4648 765.759 91.822 780.514C91.8692 782.903 91.2019 785.978 90.3257 787.389C86.9893 792.747 83.7337 798.197 80.5591 803.732C79.7233 805.192 79.0358 804.384 79.0156 801.946C78.9077 786.772 78.7932 771.613 78.6786 756.446ZM109.03 709.216C108.922 706.934 109.535 704.107 110.438 702.881C113.856 698.217 117.34 693.617 120.899 689.11C121.809 687.941 122.719 688.77 122.881 690.988C123.885 704.837 124.889 718.685 125.894 732.534C126.049 734.766 125.368 737.601 124.377 738.87C120.569 743.71 116.828 748.636 113.155 753.632C112.184 754.958 111.328 754.143 111.207 751.86C110.486 737.643 109.764 723.434 109.03 709.216ZM181.635 627.968C181.278 625.948 181.885 623.496 182.99 622.49C187.156 618.67 191.375 614.9 195.648 611.179C196.774 610.215 198.021 611.002 198.425 612.972C200.959 625.24 203.494 637.508 206.028 649.776C206.433 651.746 205.779 654.212 204.579 655.268C199.996 659.244 195.466 663.291 190.997 667.388C189.825 668.465 188.571 667.714 188.22 665.68C186.023 653.114 183.833 640.548 181.635 627.968ZM222.885 592.816C222.393 590.902 222.966 588.62 224.139 587.699C228.608 584.205 233.11 580.767 237.667 577.358C238.86 576.458 240.275 577.245 240.828 579.102C244.218 590.675 247.608 602.263 251.006 613.836C251.552 615.715 250.952 617.997 249.658 618.968C244.784 622.61 239.938 626.317 235.146 630.066C233.879 631.065 232.456 630.3 231.971 628.401C228.938 616.537 225.912 604.68 222.885 592.816ZM266.778 560.555C266.144 558.754 266.636 556.621 267.876 555.771C272.594 552.546 277.346 549.357 282.132 546.21C283.379 545.395 284.963 546.125 285.65 547.897C289.951 558.846 294.251 569.789 298.551 580.739C299.245 582.497 298.699 584.658 297.371 585.537C292.235 588.918 287.133 592.341 282.071 595.806C280.737 596.728 279.159 595.984 278.533 594.176C274.617 582.971 270.694 571.774 266.778 560.555ZM312.78 530.653C311.998 528.953 312.429 526.926 313.696 526.16C318.61 523.148 323.55 520.157 328.505 517.188C329.812 516.415 331.544 517.117 332.38 518.804C337.631 529.158 342.875 539.527 348.125 549.881C348.968 551.554 348.536 553.574 347.128 554.41C341.803 557.578 336.512 560.781 331.241 564.027C329.873 564.864 328.114 564.169 327.332 562.454C322.479 551.851 317.633 541.256 312.78 530.653ZM360.399 502.545C359.469 500.93 359.793 499.023 361.127 498.265C366.176 495.416 371.237 492.574 376.313 489.76C377.647 489.009 379.555 489.682 380.546 491.255C386.767 501.064 392.988 510.852 399.209 520.66C400.207 522.234 399.856 524.183 398.421 524.977C392.975 527.996 387.535 531.036 382.123 534.112C380.701 534.927 378.773 534.254 377.843 532.638C372.026 522.609 366.216 512.574 360.399 502.545ZM409.131 475.664C408.046 474.14 408.261 472.304 409.616 471.588C414.746 468.824 419.888 466.075 425.038 463.339C426.393 462.616 428.428 463.233 429.594 464.714C436.806 473.977 444.018 483.247 451.237 492.51C452.403 494.005 452.154 495.848 450.698 496.628C445.178 499.569 439.657 502.517 434.151 505.473C432.701 506.252 430.625 505.657 429.534 504.119C422.733 494.643 415.932 485.146 409.131 475.664ZM458.496 449.441C457.243 447.995 457.317 446.28 458.685 445.557C463.855 442.828 469.031 440.107 474.208 437.378C475.542 436.677 477.726 437.222 479.04 438.619C487.257 447.364 495.473 456.103 503.689 464.834C505.01 466.245 504.903 468.023 503.453 468.782C497.906 471.695 492.352 474.629 486.798 477.542C485.342 478.307 483.145 477.754 481.892 476.309C474.093 467.357 466.295 458.399 458.496 449.441ZM608.742 427.562C615.159 423.976 626.22 425.443 633.452 430.872C687.124 471.496 740.803 512.099 794.469 552.702C801.701 558.138 800.555 566.536 791.867 571.391C699.816 622.781 604.139 670.187 512.081 721.591C503.4 726.431 493.033 724.638 488.915 717.523C457.977 664.652 427.046 611.781 396.116 558.91C391.991 551.795 393.824 543.077 400.247 539.491C468.849 501.178 540.14 465.862 608.742 427.562ZM507.942 423.346C506.513 421.992 506.493 420.319 507.835 419.596C512.991 416.861 518.134 414.111 523.276 411.34C524.624 410.624 526.896 411.099 528.385 412.417C537.599 420.631 546.813 428.831 556.027 437.031C557.503 438.363 557.55 440.071 556.101 440.837C550.588 443.799 545.068 446.755 539.534 449.696C538.098 450.461 535.759 449.994 534.344 448.633C525.541 440.199 516.738 431.772 507.942 423.346ZM605.13 369.27C603.397 368.1 603.081 366.513 604.375 365.74C609.335 362.778 614.269 359.808 619.176 356.796C620.457 355.988 622.957 356.265 624.757 357.399C635.919 364.507 647.081 371.594 658.249 378.682C660.049 379.83 660.379 381.46 658.997 382.31C653.726 385.535 648.442 388.739 643.124 391.907C641.722 392.75 639.161 392.459 637.435 391.276C626.671 383.94 615.9 376.605 605.13 369.27ZM651.886 340.17C649.999 339.085 649.5 337.554 650.754 336.725C655.54 333.571 660.291 330.382 665.01 327.15C666.23 326.314 668.811 326.456 670.759 327.512C682.851 333.99 694.943 340.482 707.042 346.973C708.989 348.015 709.495 349.617 708.181 350.517C703.119 353.976 698.016 357.392 692.887 360.772C691.532 361.672 688.917 361.481 687.03 360.404C675.309 353.657 663.601 346.917 651.886 340.17ZM696.702 308.965C694.68 307.987 694.026 306.47 695.206 305.584C699.762 302.175 704.278 298.731 708.747 295.229C709.92 294.308 712.548 294.322 714.631 295.265C727.619 301.098 740.594 306.938 753.589 312.77C755.679 313.699 756.36 315.265 755.113 316.25C750.307 320.006 745.467 323.706 740.574 327.37C739.314 328.313 736.604 328.291 734.569 327.306C721.944 321.197 709.326 315.074 696.702 308.965ZM739.111 275.095C736.941 274.216 736.126 272.713 737.244 271.742C741.504 268.022 745.73 264.258 749.903 260.438C750.994 259.439 753.677 259.262 755.895 260.084C769.719 265.215 783.536 270.332 797.354 275.463C799.585 276.285 800.441 277.844 799.261 278.929C794.786 283.032 790.263 287.072 785.673 291.055C784.473 292.104 781.716 292.239 779.546 291.367C766.066 285.938 752.585 280.509 739.111 275.095ZM778.589 237.979C776.29 237.227 775.293 235.753 776.324 234.676C780.26 230.594 784.143 226.455 787.965 222.231C788.962 221.132 791.672 220.771 794.017 221.48C808.61 225.817 823.202 230.161 837.788 234.499C840.141 235.193 841.185 236.738 840.093 237.943C836.002 242.451 831.843 246.902 827.617 251.289C826.512 252.437 823.728 252.756 821.423 252.004C807.14 247.327 792.865 242.656 778.589 237.979ZM814.649 197.071C812.236 196.44 811.056 194.995 811.987 193.825C815.532 189.304 819.023 184.711 822.441 180.048C823.33 178.843 826.033 178.29 828.493 178.843C843.78 182.323 859.081 185.802 874.367 189.282C876.827 189.842 878.054 191.373 877.097 192.677C873.424 197.688 869.696 202.599 865.881 207.44C864.884 208.723 862.093 209.24 859.68 208.616C844.67 204.761 829.666 200.927 814.649 197.071ZM846.773 151.833C844.245 151.366 842.904 149.92 843.706 148.616C846.827 143.605 849.86 138.523 852.826 133.357C853.594 132.01 856.277 131.231 858.838 131.635C874.745 134.165 890.645 136.681 906.545 139.204C909.106 139.615 910.529 141.117 909.686 142.577C906.511 148.127 903.249 153.577 899.913 158.942C899.05 160.345 896.266 161.11 893.752 160.629C878.088 157.694 862.43 154.76 846.773 151.833ZM874.455 101.691C871.84 101.386 870.316 99.9476 871.011 98.4947C873.626 92.9454 876.153 87.311 878.614 81.5987C879.254 80.0821 881.896 79.0402 884.531 79.2812C900.964 80.7341 917.39 82.1941 933.809 83.6682C936.451 83.9092 938.049 85.4258 937.348 87.0417C934.719 93.1722 932.003 99.2247 929.206 105.164C928.451 106.744 925.734 107.744 923.119 107.439C906.896 105.525 890.679 103.612 874.455 101.691ZM897.196 46.0916C894.507 45.957 892.815 44.5466 893.361 42.9307C895.437 36.7861 897.412 30.5422 899.299 24.1921C899.791 22.5337 902.359 21.1942 905.082 21.2438C921.913 21.5273 938.763 21.8249 955.6 22.1155C958.303 22.1651 960.089 23.6534 959.557 25.4607C957.528 32.2644 955.398 38.9619 953.187 45.5459C952.594 47.2823 949.932 48.5864 947.236 48.4659C930.56 47.665 913.885 46.8783 897.196 46.0916ZM28.7201 859.353C19.358 1038.79 9.99582 1218.26 0.633667 1397.7C195.978 632.929 1202.91 764.943 1398.25 0.166321C1227.28 1.04514 1056.31 1.91687 885.334 2.80277C765.614 471.525 148.447 390.617 28.7201 859.353Z" fill="url(#paint0_linear_28_524)"/>
<defs>
<linearGradient id="paint0_linear_28_524" x1="0.633667" y1="0.166321" x2="1398.25" y2="0.166321" gradientUnits="userSpaceOnUse">
<stop stop-color="#FF0000"/>
<stop offset="0.489" stop-color="#42FF00"/>
<stop offset="1" stop-color="#2400FF"/>
</linearGradient>
</defs>
</svg>
