<svg width="1512" height="2027" viewBox="0 0 1512 2027" fill="none" xmlns="http://www.w3.org/2000/svg">
<mask id="mask0_28_527" style="mask-type:luminance" maskUnits="userSpaceOnUse" x="178" y="339" width="1399" height="1398">
<path d="M178.631 339.253H1576.28V1736.74H178.631V339.253Z" fill="white"/>
</mask>
<g mask="url(#mask0_28_527)">
<path d="M1766.04 973.528C1774.33 982.169 1772.9 993.7 1762.84 998.875C1656.31 1053.79 1551.77 1077.96 1448.54 1082.14C1438.8 1082.53 1427.01 1074.88 1422.2 1065.31C1386.17 993.981 1350.15 922.636 1314.12 851.3C1309.33 841.72 1311.26 833.842 1318.46 833.561C1395.38 830.449 1473.28 812.436 1552.67 771.519C1560.1 767.689 1572.88 771.363 1581.2 780.014C1642.82 844.517 1704.42 909.025 1766.04 973.528ZM1821.97 1049.65C1823.83 1051.62 1823.36 1054.29 1820.94 1055.55C1811.73 1060.34 1802.53 1064.93 1793.36 1069.32C1790.93 1070.47 1787.51 1069.75 1785.75 1067.74C1774.7 1055.21 1763.65 1042.68 1752.61 1030.16C1750.85 1028.18 1751.28 1025.65 1753.59 1024.55C1762.34 1020.38 1771.1 1016 1779.87 1011.43C1782.19 1010.22 1785.58 1010.83 1787.42 1012.78C1798.93 1025.07 1810.44 1037.36 1821.97 1049.65ZM1735.04 1089.51C1736.7 1091.57 1736.12 1094.02 1733.72 1094.95C1724.59 1098.44 1715.49 1101.73 1706.39 1104.84C1703.99 1105.66 1700.74 1104.61 1699.14 1102.52C1689.24 1089.54 1679.31 1076.56 1669.39 1063.59C1667.82 1061.52 1668.38 1059.2 1670.66 1058.43C1679.33 1055.47 1688.02 1052.31 1696.72 1048.98C1699.01 1048.11 1702.23 1049.06 1703.89 1051.1C1714.27 1063.9 1724.65 1076.7 1735.04 1089.51ZM1648.85 1117.49C1650.34 1119.61 1649.66 1121.84 1647.27 1122.45C1638.22 1124.76 1629.17 1126.89 1620.14 1128.85C1617.8 1129.36 1614.71 1128.02 1613.29 1125.89C1604.49 1112.61 1595.69 1099.32 1586.9 1086.04C1585.5 1083.94 1586.2 1081.81 1588.42 1081.31C1597.04 1079.45 1605.66 1077.41 1614.29 1075.21C1616.54 1074.64 1619.59 1075.89 1621.07 1077.98C1630.33 1091.15 1639.59 1104.32 1648.85 1117.49ZM1563.39 1134.73C1564.71 1136.89 1563.85 1138.92 1561.53 1139.24C1552.55 1140.5 1543.56 1141.58 1534.6 1142.51C1532.24 1142.76 1529.35 1141.17 1528.1 1139.01C1520.41 1125.56 1512.72 1112.11 1505.04 1098.65C1503.82 1096.52 1504.6 1094.57 1506.85 1094.34C1515.41 1093.45 1523.96 1092.41 1532.52 1091.22C1534.74 1090.92 1537.65 1092.42 1538.96 1094.55C1547.1 1107.94 1555.25 1121.34 1563.39 1134.73ZM1478.57 1142.4C1479.68 1144.56 1478.72 1146.42 1476.36 1146.51C1467.45 1146.8 1458.54 1146.96 1449.65 1146.99C1447.3 1146.99 1444.53 1145.22 1443.47 1143.05C1436.89 1129.55 1430.3 1116.03 1423.71 1102.54C1422.68 1100.38 1423.63 1098.61 1425.86 1098.61C1434.34 1098.58 1442.84 1098.43 1451.33 1098.14C1453.58 1098.06 1456.31 1099.77 1457.44 1101.91C1464.49 1115.41 1471.52 1128.9 1478.57 1142.4ZM1402.31 1065.45C1406.99 1075 1402.89 1082.77 1393.19 1082.52C1290.41 1079.87 1188.79 1059.17 1087.65 1031.16C1078.1 1028.52 1069.32 1018.97 1068.07 1009.97C1058.4 942.744 1048.72 875.538 1039.05 808.312C1037.78 799.299 1042.48 793.616 1049.53 795.573C1124.9 816.439 1200.62 831.876 1277.21 833.847C1284.4 834.03 1294 841.828 1298.68 851.394C1333.23 922.74 1367.78 994.09 1402.31 1065.45ZM1394.28 1141.67C1395.24 1143.84 1394.12 1145.51 1391.79 1145.36C1382.92 1144.85 1374.07 1144.21 1365.22 1143.46C1362.9 1143.27 1360.26 1141.33 1359.4 1139.16C1353.91 1125.7 1348.42 1112.25 1342.92 1098.8C1342.05 1096.67 1343.16 1095.06 1345.36 1095.25C1353.79 1095.96 1362.23 1096.57 1370.68 1097.06C1372.91 1097.2 1375.49 1099.07 1376.44 1101.2C1382.39 1114.69 1388.33 1128.17 1394.28 1141.67ZM1310.43 1133.7C1311.22 1135.84 1309.98 1137.35 1307.67 1137.03C1298.85 1135.81 1290.03 1134.5 1281.22 1133.1C1278.92 1132.73 1276.47 1130.67 1275.75 1128.53C1271.35 1115.21 1266.95 1101.9 1262.55 1088.58C1261.86 1086.48 1263.08 1085.01 1265.26 1085.36C1273.66 1086.7 1282.07 1087.97 1290.48 1089.12C1292.69 1089.42 1295.11 1091.41 1295.88 1093.53C1300.73 1106.93 1305.58 1120.31 1310.43 1133.7ZM1227.01 1119.65C1227.63 1121.77 1226.23 1123.13 1223.95 1122.66C1215.16 1120.87 1206.38 1119.01 1197.6 1117.06C1195.29 1116.56 1193 1114.42 1192.48 1112.31C1189.15 1099.2 1185.85 1086.1 1182.53 1072.99C1182 1070.92 1183.34 1069.58 1185.53 1070.07C1193.9 1071.93 1202.27 1073.71 1210.66 1075.42C1212.81 1075.86 1215.13 1077.95 1215.71 1080.05C1219.48 1093.24 1223.25 1106.45 1227.01 1119.65ZM1143.91 1100.7C1144.35 1102.78 1142.82 1104.01 1140.52 1103.41C1131.77 1101.18 1123.03 1098.88 1114.29 1096.54C1111.99 1095.92 1109.81 1093.72 1109.46 1091.66C1107.22 1078.81 1104.99 1065.98 1102.75 1053.15C1102.41 1051.1 1103.89 1049.91 1106.09 1050.5C1114.43 1052.74 1122.76 1054.93 1131.1 1057.06C1133.28 1057.63 1135.44 1059.78 1135.87 1061.83C1138.55 1074.79 1141.23 1087.74 1143.91 1100.7ZM1022.05 769.89C1022.3 771.934 1021.23 773.219 1019.66 772.751C1013.69 770.998 1007.72 769.221 1001.75 767.414C1000.19 766.931 998.742 764.909 998.564 762.893C997.416 750.371 996.259 737.85 995.107 725.323C994.919 723.307 995.967 722.056 997.425 722.491C1002.99 724.18 1008.55 725.834 1014.11 727.469C1015.57 727.904 1016.98 729.893 1017.24 731.922C1018.83 744.581 1020.44 757.24 1022.05 769.89ZM1061.05 1078.01C1061.32 1080.04 1059.64 1081.16 1057.36 1080.49C1048.62 1077.93 1039.9 1075.32 1031.19 1072.69C1028.89 1071.99 1026.88 1069.77 1026.67 1067.76C1025.52 1055.24 1024.36 1042.71 1023.21 1030.19C1023.02 1028.2 1024.66 1027.11 1026.85 1027.77C1035.17 1030.28 1043.49 1032.75 1051.81 1035.21C1054 1035.85 1055.98 1038.03 1056.25 1040.04C1057.85 1052.7 1059.46 1065.36 1061.05 1078.01ZM978.334 1052.74C978.425 1054.73 976.648 1055.77 974.351 1055.03C965.634 1052.27 956.909 1049.48 948.189 1046.68C945.927 1045.93 944.056 1043.73 944.032 1041.77C943.961 1029.58 943.88 1017.4 943.813 1005.22C943.789 1003.29 945.565 1002.26 947.722 1002.96C956.037 1005.63 964.347 1008.29 972.667 1010.93C974.844 1011.63 976.687 1013.8 976.76 1015.76C977.28 1028.08 977.814 1040.41 978.334 1052.74ZM895.74 1026.07C895.652 1028 893.712 1028.96 891.444 1028.22C882.731 1025.37 874.008 1022.53 865.295 1019.67C862.999 1018.92 861.287 1016.76 861.446 1014.87C862.451 1003.03 863.451 991.194 864.451 979.359C864.61 977.477 866.492 976.506 868.678 977.212C876.991 979.928 885.298 982.65 893.621 985.366C895.768 986.072 897.479 988.234 897.388 990.135C896.837 1002.12 896.296 1014.09 895.74 1026.07ZM813.159 999.16C812.893 1001.03 810.798 1001.96 808.511 1001.22C799.811 998.408 791.095 995.623 782.384 992.862C780.091 992.127 778.484 990.033 778.823 988.183C780.894 976.699 782.975 965.205 785.051 953.726C785.388 951.896 787.425 950.962 789.627 951.644C797.933 954.282 806.228 956.95 814.538 959.622C816.719 960.324 818.296 962.428 818.041 964.272C816.414 975.898 814.791 987.529 813.159 999.16ZM730.513 973.174C730.087 974.995 727.846 975.901 725.557 975.211C716.831 972.567 708.113 969.962 699.383 967.406C697.098 966.73 695.62 964.718 696.132 962.925C699.285 951.762 702.443 940.605 705.586 929.452C706.092 927.674 708.305 926.738 710.479 927.381C718.793 929.824 727.115 932.306 735.441 934.822C737.629 935.479 739.058 937.502 738.618 939.308C735.925 950.589 733.221 961.879 730.513 973.174ZM698.006 894.115C695.615 902.003 685.969 906.177 676.421 903.541C575.287 875.525 473.672 854.821 370.889 852.171C361.182 851.915 357.985 845.964 363.755 838.648C406.491 784.184 449.224 729.706 491.96 675.242C497.725 667.931 508.248 662.005 515.411 662.193C592.006 664.169 667.727 679.596 743.096 700.462C750.144 702.415 753.955 710.456 751.59 718.328C733.729 776.927 715.862 835.531 698.006 894.115ZM647.704 949.27C647.09 951.039 644.755 951.98 642.453 951.358C633.701 949.003 624.946 946.706 616.188 944.468C613.914 943.885 612.598 941.978 613.27 940.238C617.51 929.372 621.747 918.501 625.972 907.65C626.652 905.929 629.004 904.953 631.157 905.504C639.508 907.638 647.861 909.827 656.203 912.074C658.388 912.668 659.655 914.584 659.057 916.319C655.271 927.308 651.485 938.296 647.704 949.27ZM564.71 928.625C563.932 930.347 561.429 931.329 559.137 930.829C550.353 928.889 541.576 927.018 532.786 925.234C530.478 924.759 529.312 922.997 530.178 921.284C535.499 910.667 540.815 900.054 546.121 889.441C546.971 887.753 549.422 886.717 551.633 887.164C560.011 888.869 568.386 890.652 576.763 892.498C578.929 892.98 580.083 894.79 579.315 896.493C574.445 907.199 569.575 917.914 564.71 928.625ZM481.44 912.399C480.468 914.094 477.819 915.16 475.493 914.788C466.692 913.39 457.878 912.071 449.07 910.859C446.751 910.535 445.688 908.909 446.728 907.233C453.126 896.81 459.525 886.377 465.928 875.939C466.948 874.283 469.594 873.153 471.801 873.463C480.216 874.616 488.612 875.861 497 877.209C499.21 877.553 500.222 879.238 499.295 880.898C493.338 891.4 487.387 901.907 481.44 912.399ZM397.789 901.764C396.661 903.431 393.841 904.626 391.513 904.425C382.671 903.677 373.825 903.037 364.959 902.519C362.613 902.391 361.699 900.93 362.915 899.262C370.405 888.935 377.894 878.609 385.398 868.277C386.578 866.644 389.386 865.385 391.61 865.51C400.051 866.008 408.493 866.617 416.925 867.33C419.152 867.508 420.034 869.038 418.916 870.685C411.875 881.047 404.839 891.403 397.789 901.764ZM511.736 646.902C510.427 648.556 508.076 649.908 506.467 649.919C500.381 649.935 494.286 650.045 488.182 650.247C486.586 650.311 486.419 648.999 487.796 647.344C496.389 637.026 504.988 626.704 513.576 616.391C514.953 614.726 517.297 613.345 518.765 613.291C524.458 613.103 530.137 612.993 535.818 612.976C537.299 612.976 537.455 614.308 536.137 615.972C528.013 626.275 519.875 636.584 511.736 646.902ZM313.684 897.879C312.371 899.538 309.433 900.886 307.081 900.895C298.184 900.924 289.271 901.081 280.343 901.394C278.033 901.466 277.239 900.189 278.626 898.524C287.219 888.206 295.808 877.893 304.406 867.571C305.758 865.931 308.729 864.504 310.932 864.424C319.438 864.144 327.93 863.992 336.427 863.956C338.651 863.949 339.378 865.319 338.101 866.944C329.957 877.257 321.823 887.57 313.684 897.879ZM1.2394 935.805C-8.8241 940.994 -9.36181 938.811 0.0382505 930.557C69.8326 869.245 139.627 807.944 209.436 746.627C218.845 738.392 232.531 728.346 239.958 724.521C319.348 683.595 397.237 665.591 474.174 662.474C481.371 662.188 482.416 668.039 476.51 675.346C432.296 729.825 388.088 784.298 343.869 838.782C337.963 846.099 325.279 852.159 315.54 852.553C212.307 856.726 107.769 880.899 1.2394 935.805ZM229.085 901.912C227.6 903.587 224.473 905.127 222.136 905.375C213.178 906.309 204.204 907.389 195.218 908.641C192.859 908.957 192.223 907.874 193.792 906.193C203.489 895.772 213.191 885.355 222.889 874.933C224.437 873.282 227.518 871.654 229.765 871.334C238.328 870.155 246.889 869.117 255.435 868.227C257.654 868 258.271 869.185 256.802 870.826C247.566 881.185 238.326 891.548 229.085 901.912ZM143.9 915.03C142.248 916.727 138.935 918.513 136.563 919.03C127.543 920.99 118.512 923.121 109.469 925.423C107.094 926.038 106.558 925.139 108.303 923.427C119.114 912.789 129.931 902.147 140.742 891.499C142.457 889.817 145.725 887.933 148.002 887.349C156.62 885.148 165.231 883.124 173.836 881.256C176.095 880.765 176.583 881.756 174.941 883.433C164.594 893.969 154.247 904.494 143.9 915.03ZM58.0472 938.393C56.2022 940.145 52.741 942.216 50.3424 943.031C41.2472 946.145 32.145 949.434 23.0248 952.929C20.6124 953.842 20.2288 953.171 22.1579 951.394C34.0835 940.388 46.024 929.378 57.9543 918.377C59.8431 916.63 63.2792 914.451 65.5778 913.574C74.2759 910.244 82.9517 907.106 91.625 904.148C93.8954 903.363 94.2543 904.161 92.4449 905.879C80.9805 916.718 69.5111 927.563 58.0472 938.393ZM-28.5837 973.188C-30.6173 975.01 -34.1986 977.395 -36.6209 978.552C-45.8161 982.937 -55.0098 987.526 -64.2321 992.341C-66.6188 993.585 -66.8788 993.124 -64.7752 991.262C-51.7142 979.737 -38.6434 968.212 -25.5722 956.678C-23.4995 954.855 -19.8935 952.343 -17.6164 951.148C-8.83851 946.567 -0.0540589 942.187 8.70256 938.012C11.0004 936.91 11.2052 937.528 9.20725 939.316C-3.39953 950.607 -15.9867 961.897 -28.5837 973.188ZM292.522 676.084C294.63 674.217 297.571 672.068 299.099 671.272C304.976 668.21 310.842 665.279 316.694 662.486C318.223 661.763 317.841 662.631 315.813 664.449C303.231 675.734 290.629 687.03 278.032 698.32C275.998 700.143 273.035 702.238 271.375 703.031C265.085 706.034 258.795 709.168 252.494 712.454C250.851 713.316 251.225 712.521 253.324 710.663C266.39 699.134 279.456 687.604 292.522 676.084ZM348.483 650.419C350.397 648.647 353.182 646.744 354.721 646.152C360.535 643.921 366.334 641.827 372.138 639.84C373.669 639.322 373.424 640.311 371.584 642.048C360.115 652.893 348.651 663.723 337.182 674.567C335.332 676.305 332.495 678.184 330.859 678.738C324.644 680.861 318.409 683.115 312.173 685.502C310.54 686.139 310.753 685.209 312.677 683.446C324.612 672.431 336.543 661.43 348.483 650.419ZM403.931 632.418C405.682 630.701 408.321 629.005 409.827 628.623C415.596 627.15 421.355 625.789 427.1 624.545C428.614 624.222 428.511 625.317 426.849 627.014C416.507 637.544 406.149 648.08 395.807 658.611C394.126 660.307 391.453 661.97 389.831 662.323C383.662 663.659 377.483 665.117 371.3 666.693C369.67 667.109 369.771 666.053 371.507 664.341C382.323 653.699 393.125 643.061 403.931 632.418ZM458.963 621.318C460.526 619.652 462.983 618.123 464.492 617.917C470.219 617.123 475.946 616.422 481.66 615.837C483.133 615.676 483.171 616.907 481.691 618.568C472.451 628.931 463.21 639.294 453.97 649.658C452.475 651.323 449.966 652.809 448.366 652.981C442.24 653.618 436.1 654.363 429.956 655.205C428.329 655.431 428.318 654.249 429.871 652.573C439.573 642.156 449.271 631.744 458.963 621.318ZM567.835 616.859C569.036 615.196 571.218 613.924 572.71 614.017C578.352 614.347 583.997 614.75 589.643 615.227C591.118 615.364 591.422 616.806 590.289 618.468C583.248 628.83 576.207 639.191 569.167 649.552C568.034 651.214 565.809 652.462 564.215 652.336C558.17 651.815 552.112 651.381 546.06 651.026C544.47 650.935 544.136 649.512 545.352 647.844C552.841 637.517 560.335 627.196 567.835 616.859ZM621.788 621.991C622.819 620.305 624.856 619.127 626.334 619.327C631.953 620.102 637.555 620.94 643.175 621.837C644.651 622.067 645.072 623.631 644.124 625.32C638.178 635.812 632.221 646.314 626.28 656.811C625.312 658.51 623.256 659.669 621.658 659.416C615.65 658.455 609.616 657.557 603.588 656.728C601.988 656.514 601.547 654.96 602.573 653.289C608.976 642.852 615.38 632.424 621.788 621.991ZM675.505 631.032C676.356 629.323 678.23 628.191 679.704 628.489C685.304 629.63 690.902 630.821 696.492 632.064C697.946 632.392 698.525 634.037 697.731 635.764C692.866 646.475 688.006 657.181 683.141 667.892C682.363 669.614 680.431 670.727 678.876 670.386C672.873 669.053 666.864 667.774 660.852 666.554C659.261 666.238 658.697 664.588 659.558 662.879C664.874 652.267 670.179 641.654 675.505 631.032ZM728.998 643.23C729.674 641.485 731.43 640.383 732.861 640.76C738.445 642.189 744.031 643.653 749.612 645.141C751.077 645.542 751.78 647.274 751.151 649.048C747.375 660.026 743.584 671.01 739.808 681.988C739.194 683.757 737.444 684.854 735.863 684.425C729.881 682.809 723.898 681.242 717.898 679.719C716.345 679.319 715.619 677.573 716.305 675.818C720.536 664.952 724.767 654.096 728.998 643.23ZM782.33 657.839C782.842 656.046 784.436 654.951 785.909 655.38C791.469 657.02 797.034 658.675 802.587 660.358C804.056 660.793 804.9 662.631 804.461 664.438C801.752 675.733 799.059 687.013 796.351 698.308C795.916 700.12 794.273 701.225 792.704 700.748C786.744 698.941 780.775 697.154 774.798 695.41C773.223 694.957 772.364 693.105 772.876 691.312C776.024 680.154 779.182 668.996 782.33 657.839ZM835.556 674.099C835.894 672.259 837.362 671.136 838.819 671.61C844.374 673.367 849.929 675.143 855.478 676.935C856.94 677.404 857.915 679.294 857.664 681.162C856.037 692.789 854.405 704.42 852.782 716.051C852.521 717.929 851.025 719.033 849.451 718.531C843.496 716.617 837.537 714.707 831.581 712.813C830.013 712.315 828.994 710.411 829.338 708.556C831.404 697.077 833.485 685.583 835.556 674.099ZM888.75 691.273C888.915 689.366 890.198 688.225 891.669 688.704C897.227 690.515 902.785 692.335 908.348 694.151C909.781 694.62 910.91 696.568 910.823 698.483C910.266 710.47 909.715 722.452 909.169 734.429C909.076 736.359 907.724 737.52 906.171 737.008C900.218 735.055 894.245 733.111 888.287 731.153C886.724 730.641 885.591 728.679 885.755 726.773C886.75 714.943 887.75 703.108 888.75 691.273ZM1009.07 783.88C1016.11 785.989 1022.76 794.949 1023.9 803.92C1032.11 870.73 1040.34 937.53 1048.57 1004.32C1049.7 1013.3 1042.88 1018.32 1033.34 1015.47C932.362 985.177 831.716 949.512 730.722 919.229C721.202 916.368 715.271 907.679 717.511 899.768C733.918 840.749 750.33 781.735 766.742 722.721C768.977 714.805 776.511 710.051 783.557 712.165C858.824 734.727 933.812 761.308 1009.07 783.88ZM941.909 708.593C941.886 706.625 943.072 705.446 944.525 705.906C950.079 707.702 955.633 709.478 961.203 711.24C962.656 711.709 963.896 713.67 963.987 715.657C964.507 727.99 965.037 740.313 965.567 752.636C965.638 754.623 964.445 755.846 962.887 755.339C956.922 753.444 950.957 751.54 944.993 749.616C943.444 749.118 942.151 747.114 942.142 745.151C942.066 732.96 941.985 720.774 941.909 708.593ZM1048.39 740.698C1048.03 738.641 1048.94 737.308 1050.4 737.699C1055.98 739.197 1061.55 740.671 1067.13 742.095C1068.6 742.452 1070.14 744.439 1070.58 746.521C1073.25 759.482 1075.93 772.428 1078.62 785.379C1079.05 787.47 1078.11 788.842 1076.54 788.443C1070.56 786.905 1064.58 785.342 1058.6 783.731C1057.02 783.312 1055.44 781.271 1055.09 779.209C1052.86 766.375 1050.63 753.537 1048.39 740.698ZM1101.84 753.997C1101.3 751.887 1102.05 750.463 1103.52 750.785C1109.12 752.024 1114.71 753.214 1120.32 754.351C1121.77 754.644 1123.46 756.596 1124.06 758.729C1127.83 771.919 1131.59 785.118 1135.36 798.322C1135.97 800.446 1135.17 801.924 1133.61 801.607C1127.6 800.382 1121.59 799.098 1115.6 797.771C1114.01 797.425 1112.32 795.415 1111.78 793.31C1108.46 780.199 1105.15 767.103 1101.84 753.997ZM1155.44 764.436C1154.73 762.303 1155.37 760.778 1156.82 761.008C1162.44 761.905 1168.06 762.748 1173.68 763.517C1175.16 763.718 1176.98 765.614 1177.76 767.766C1182.61 781.149 1187.46 794.529 1192.32 807.917C1193.11 810.063 1192.46 811.643 1190.88 811.434C1184.84 810.6 1178.81 809.702 1172.78 808.741C1171.22 808.493 1169.35 806.533 1168.64 804.386C1164.23 791.071 1159.84 777.751 1155.44 764.436ZM1209.28 771.292C1208.4 769.123 1208.91 767.491 1210.38 767.618C1216.02 768.085 1221.66 768.498 1227.31 768.833C1228.79 768.921 1230.78 770.723 1231.74 772.887C1237.68 786.382 1243.63 799.863 1249.57 813.353C1250.53 815.527 1250.01 817.227 1248.41 817.135C1242.35 816.78 1236.3 816.347 1230.24 815.825C1228.65 815.695 1226.64 813.81 1225.75 811.645C1220.26 798.189 1214.77 784.733 1209.28 771.292ZM1263.41 773.784C1262.35 771.612 1262.71 769.869 1264.2 769.859C1269.87 769.842 1275.54 769.747 1281.24 769.549C1282.72 769.5 1284.87 771.193 1285.99 773.37C1293.04 786.864 1300.08 800.363 1307.12 813.852C1308.26 816.024 1307.88 817.85 1306.26 817.905C1300.17 818.107 1294.08 818.221 1287.99 818.242C1286.4 818.248 1284.23 816.473 1283.16 814.295C1276.58 800.786 1269.99 787.288 1263.41 773.784ZM1317.88 771.183C1316.65 769.012 1316.87 767.159 1318.35 767.012C1324.07 766.409 1329.79 765.717 1335.52 764.923C1337 764.722 1339.28 766.277 1340.6 768.428C1348.75 781.823 1356.9 795.228 1365.05 808.624C1366.36 810.779 1366.11 812.726 1364.51 812.947C1358.36 813.799 1352.24 814.543 1346.11 815.176C1344.49 815.353 1342.18 813.71 1340.94 811.544C1333.26 798.086 1325.57 784.647 1317.88 771.183ZM1372.71 762.742C1371.29 760.602 1371.39 758.633 1372.89 758.3C1378.66 757.052 1384.42 755.69 1390.19 754.222C1391.69 753.835 1394.12 755.218 1395.61 757.338C1404.87 770.517 1414.14 783.681 1423.4 796.851C1424.89 798.975 1424.8 801.042 1423.16 801.454C1416.97 803.039 1410.79 804.493 1404.61 805.833C1403 806.191 1400.52 804.726 1399.11 802.586C1390.31 789.3 1381.52 776.019 1372.71 762.742ZM1427.98 747.698C1426.38 745.608 1426.35 743.513 1427.87 743C1433.68 741.013 1439.48 738.904 1445.3 736.693C1446.83 736.096 1449.42 737.267 1451.08 739.327C1461.48 752.133 1471.87 764.939 1482.24 777.751C1483.91 779.815 1483.93 782.018 1482.29 782.64C1476.05 785.022 1469.82 787.286 1463.61 789.414C1461.95 789.972 1459.34 788.719 1457.74 786.629C1447.81 773.652 1437.9 760.68 1427.98 747.698ZM1483.72 725.307C1481.94 723.283 1481.78 721.087 1483.32 720.354C1489.17 717.565 1495.03 714.635 1500.9 711.568C1502.44 710.767 1505.19 711.677 1507.05 713.666C1518.56 725.944 1530.08 738.246 1541.6 750.533C1543.44 752.508 1543.62 754.826 1541.95 755.702C1535.65 758.983 1529.36 762.118 1523.1 765.116C1521.44 765.899 1518.65 764.896 1516.86 762.877C1505.82 750.35 1494.78 737.834 1483.72 725.307ZM295.283 668.213C159.967 786.436 24.6369 904.675 -110.678 1022.9C574.261 630.609 1180.62 1445.27 1865.56 1052.97C1745.89 930.862 1626.22 808.757 1506.53 686.651C1086.74 927.087 715.088 427.772 295.283 668.213Z" fill="url(#paint0_linear_28_527)"/>
</g>
<defs>
<linearGradient id="paint0_linear_28_527" x1="892.418" y1="49.8117" x2="1865.56" y2="1052.97" gradientUnits="userSpaceOnUse">
<stop stop-color="#FF0000"/>
<stop offset="0.489" stop-color="#42FF00"/>
<stop offset="1" stop-color="#2400FF"/>
</linearGradient>
</defs>
</svg>
